<svg xmlns="http://www.w3.org/2000/svg" width="14.388" height="21.264" viewBox="0 0 14.388 21.264">
  <g id="Group_3344" data-name="Group 3344" transform="translate(-991.425 -1163.476)">
    <path id="Path_746" data-name="Path 746" d="M998.629,1163.476a17.577,17.577,0,0,0,1.45,2.963c.943,1.579,2.059,3.039,3.106,4.547a15.461,15.461,0,0,1,2.427,5.065,7.052,7.052,0,0,1-5.3,8.507,7.171,7.171,0,0,1-8.6-4.888,7.7,7.7,0,0,1,.431-5.268,20.272,20.272,0,0,1,2.638-4.351,28.337,28.337,0,0,0,3.677-6.16C998.509,1163.769,998.559,1163.647,998.629,1163.476Z" transform="translate(0 0)" fill="#f47d80"/>
    <path id="Path_747" data-name="Path 747" d="M1013.65,1271.167c.049-.141.1-.318.171-.484a25.167,25.167,0,0,1,2.061-3.548.4.4,0,0,1,.6-.16.414.414,0,0,1,.091.64,30.337,30.337,0,0,0-1.706,2.825,7.845,7.845,0,0,0-.408.94.378.378,0,0,1-.472.249C1013.76,1271.582,1013.663,1271.425,1013.65,1271.167Z" transform="translate(-20.589 -95.808)" fill="#fdfdfd"/>
    <path id="Path_748" data-name="Path 748" d="M1009.571,1337.842c-.025.218-.047.435-.075.653a.374.374,0,0,1-.421.361.384.384,0,0,1-.4-.39,3.769,3.769,0,0,1,.095-.942.382.382,0,0,1,.453-.331.407.407,0,0,1,.367.431,1.527,1.527,0,0,1-.025.217Z" transform="translate(-15.976 -160.925)" fill="#fdfcfc"/>
  </g>
</svg>
