<svg xmlns="http://www.w3.org/2000/svg" width="27.887" height="29.075" viewBox="0 0 27.887 29.075">
  <g id="donation" transform="translate(-7.72 0)">
    <path id="Path_749" data-name="Path 749" d="M20.042,110.46l-.155,3.424H13.616a6.21,6.21,0,0,0-1.7-4.543,18.4,18.4,0,0,1-4-5.708,2.838,2.838,0,0,1-.194-1.087V96.751a1.123,1.123,0,0,1,.892-1.087,1.053,1.053,0,0,1,1.183.868l.822,5.372a7.377,7.377,0,0,0,2.96,3.624c.35.239.738.5,1.184.22a.726.726,0,0,0-.064-.958l-1.831-1.45a1.562,1.562,0,0,1-.648-1.765.675.675,0,0,1,1.049-.39l3.689,2.634a4.824,4.824,0,0,1,1.631,1.482A8.14,8.14,0,0,1,20.042,110.46Z" transform="translate(0 -88.295)" fill="#fed19a"/>
    <path id="Path_750" data-name="Path 750" d="M72.035,330.142h7a.449.449,0,0,1,.449.449v2.729a.449.449,0,0,1-.449.449h-7a.449.449,0,0,1-.449-.449v-2.729A.449.449,0,0,1,72.035,330.142Z" transform="translate(-58.952 -304.743)" fill="#575b6d"/>
    <circle id="Ellipse_76" data-name="Ellipse 76" cx="0.552" cy="0.552" r="0.552" transform="translate(18.444 26.661)" fill="#828a9e"/>
    <path id="Path_751" data-name="Path 751" d="M209.862,110.46l.155,3.424h6.271a6.21,6.21,0,0,1,1.7-4.543,18.4,18.4,0,0,0,4-5.708,2.838,2.838,0,0,0,.194-1.087V96.751a1.123,1.123,0,0,0-.892-1.087,1.053,1.053,0,0,0-1.183.868l-.824,5.372a7.377,7.377,0,0,1-2.958,3.624c-.35.239-.738.5-1.184.22a.726.726,0,0,1,.064-.958l1.831-1.45a1.562,1.562,0,0,0,.648-1.765.675.675,0,0,0-1.049-.39l-3.688,2.634a4.824,4.824,0,0,0-1.631,1.482A8.141,8.141,0,0,0,209.862,110.46Z" transform="translate(-186.577 -88.295)" fill="#fed19a"/>
    <path id="Path_752" data-name="Path 752" d="M201.295,330.142h7.1a.455.455,0,0,1,.455.455v2.766a.455.455,0,0,1-.455.455h-7.1a.455.455,0,0,1-.455-.455V330.6A.455.455,0,0,1,201.295,330.142Z" transform="translate(-178.262 -304.743)" fill="#575b6d"/>
    <circle id="Ellipse_77" data-name="Ellipse 77" cx="0.559" cy="0.559" r="0.559" transform="translate(23.579 26.734)" fill="#828a9e"/>
    <path id="Path_753" data-name="Path 753" d="M94.022,0a4.893,4.893,0,0,0-3.268,1.25,4.912,4.912,0,0,0-8.185,3.668c0,5.094,8.185,10.521,8.185,10.521s8.2-5.409,8.185-10.521A4.922,4.922,0,0,0,94.022,0Z" transform="translate(-69.09 0)" fill="#ef5261"/>
  </g>
</svg>
