<svg xmlns="http://www.w3.org/2000/svg" xmlns:xlink="http://www.w3.org/1999/xlink" width="391" height="309" viewBox="0 0 391 309">
  <defs>
    <clipPath id="clip-path">
      <rect id="Rectangle_176" data-name="Rectangle 176" width="391" height="309" transform="translate(0 -0.457)" fill="none"/>
    </clipPath>
    <clipPath id="clip-path-2">
      <circle id="Ellipse_58" data-name="Ellipse 58" cx="167.521" cy="167.521" r="167.521" transform="translate(0 236.911) rotate(-45)" fill="none"/>
    </clipPath>
  </defs>
  <g id="Group_3331" data-name="Group 3331" transform="translate(-513 -183.543)">
    <g id="Group_3330" data-name="Group 3330" transform="translate(513 184)" clip-path="url(#clip-path)">
      <g id="Group_3328" data-name="Group 3328" transform="translate(-41.63 0.17)">
        <g id="Group_3312" data-name="Group 3312" opacity="0.18">
          <g id="Group_3311" data-name="Group 3311" clip-path="url(#clip-path-2)">
            <circle id="Ellipse_57" data-name="Ellipse 57" cx="167.521" cy="167.521" r="167.521" transform="translate(0 236.911) rotate(-45)" fill="#cbe6f2"/>
            <g id="Group_3310" data-name="Group 3310" transform="translate(47.559 53.8)" style="mix-blend-mode: multiply;isolation: isolate">
              <g id="Group_3309" data-name="Group 3309">
                <path id="Path_671" data-name="Path 671" d="M538.057,328.692c9.085,4.113,17.241,5.553,21.2,3.352s16.068,4.309,16.6,7.847,8.355,6.411,10.537,3.1,10.324,1.572,13.5-.876c4.575-3.531,1.446-8.564,2.759-9.84s7.487-1.033,5.945,6.546c-.951,4.674,1.458,8.081,4.17,8.367s6.1-7.249,2.825-9.405-3.76-4.956-.1-11.461,7.974-4.2,14.457-2.656,2.525,3.463,4.467,8.319,8.11,4.763,7.207,7.093-.743,4.688,1.8,7.6,6.079,3.01,2.473,7.041-3.539,1.568-3.539,1.568-2.032-5.046-3.984-1.906,5.262,4.864,3.334,8.825-7.241,2.466-9.95-1.371.5-10.884,1.1-13.469-.981-7.93-6.043-6.177-3.892,2.835-5.088,8.514-6.893.419-10.088,5.372-16.306,14.509-15.776,18.581,9.511,9.464,12.874,10.994,4.076.926,3.427,4.6.667,5.872,2.4,5.648,2.231-2.4,1.833-6.906,2.346-2.891,4.937-6.393-2.022-6.439-.27-8.782-1.078-5.444.805-8.642,13.384,1.621,11.876,4.4-.119,7.086,2.228,6.781,4.229-5.927,4.727-5.845,2.092,4.614,2.622,9.489,8.257,7.244,8.923,10.124-6.934,7.067-10.813,6.683-5.837,1.705-4.053,2.842.242,4.241,2.393,6.322,4.863-2.352,5.523.112-3.347,3.034-8.36,5.642-2.49-2.065-6.517.2,1.492,4.546-2.325,5.828-6.246,5.024-7.7,8.33,1.4,3.134-5.568,9.4-1.868,11.037-2.331,15.38-4.227-3.515-4.774-5.518-2.457.038-3.774-1.027-4.488-.588-6.711-.061-.334,2.91-3.339,2.253-6.835,1.151-9.129,3.147-.231,2.739-.99,7.136S588.335,466.9,590,466.643s1.075-.794,3.716-.888,1.687-2.519,2.339-4.506,4.829-2.826,4.829-2.826l1.271,1.615c1.271,1.615-2.1,7.148-2.036,9.729s6.806-1.79,8.535.1,5.721,7.565,8.338,7.225a49.811,49.811,0,0,0,6.658-1.6c2.45-.624-.128-2.256,1.975-3.794s2.3.644,2.8,2.747-1.064,3.425.609,3.207.785-2.353.785-2.353a8.544,8.544,0,0,1,.421-1.5c.27-.648,2.311-1.651,4.149.267s3.451.5,4.193-.349c.873-1,5.027-1.046,5.519.5.462,1.456,6.751,3.7,9.366,5.353s8.088-1.773,11.563,4.8,17.334,6.515,24.632,8.962,3.113,8.783.294,13.828.464,11.471-3.086,17.767-8.549,5.393-9.937,12.7-7.039,12.809-8.656,17.381-3.691,5.1-7.173,7.913-1.185,9.228-2.729,10.793-2.433,3.606.089,5.139-.074,3.907-1.237,9.373,8.743,8.144,8.743,8.144l-5.2,3.349s-8.523-.226-10.4-4.808-3.914-5.687-4.365-8.513,1.348-2.408.221-4.689.97-10.183-1.114-11.74-2.646,2.139-2.728-2.948-.826-7.509-.641-12.207-.787-7.889-1.765-16.661-.2-12.917-5.213-15.065-8.856-2.243-12.175-9.43-6.126-4.613-7.126-8.73.625-11.025,4.188-14.858-2.463-8.185-4.873-6.592-5.808-.4-8.616-3.767-1.855-4.359-6.217-4.969-5.449-3.176-9.556-3.649-4.42,1.706-13.354-1.75-5.32-7.06-9.778-11.108-8.964-14.006-9.819-11.843-2.67,5.975-5.138-.6-4.7-3.578-6.943-7.43-4.8-13.016-4.079-18.09,4.2-11.595,1.371-19.076-6.429-10.645-8.227-17.759-4.854-13.172-8.613-14.909c-1.88-.868-3.467-2.212-5.227-2.738C523.877,351.542,529.617,339.109,538.057,328.692Z" transform="translate(-520.59 -268.171)" fill="#95b7af"/>
                <path id="Path_672" data-name="Path 672" d="M638.967,492.83c-.166.105-2.9,2.587-1.543,3.414s3.433-.808,6.321-.223,8.656.892,10.266,3.174,8.117,5.078,13,2.794,5.662,1.03,9.124-.579,4.622-3.712,1.283-4.358-8.112.708-12.031-.116S647.975,487.083,638.967,492.83Z" transform="translate(-546.08 -305.151)" fill="#95b7af"/>
                <path id="Path_673" data-name="Path 673" d="M694.814,340.891s-.172,3.947,2.826,3.886,2.205,1.669,4.074,1.95,2.034-.135,2.5-2.224.935-5.449,3-7.375-1.849-5.312,3.793-6.8,6.026-6.9,10.383-8.3,11.305-2.318,12.448-9.743-1.407-8.256,1.266-14.537-.246-10.74,1.04-16.379c2.8-10.14,8.869-12.233,7.589-14.684s-3.01-1.272-7.507-1.565-4.42-2.2-2.078-3.837-.009-5.44-5.23-6.718-11.026-2.914-12.918.908-8.492.935-6.932,5.4-5.757,5.013-6.96,1.266-20.875,7.83-18.078,10.08,6.133,4,.989,5.309-12.856,4.086-8.933,7.415-3.478,5.164,2.143,7.617,9.133-5.244,11.6,5.56-1.655,18.488,1.127,20.891-2.775,3.963-.616,9.894S693.89,335.613,694.814,340.891Z" transform="translate(-554.39 -253.094)" fill="#95b7af"/>
                <path id="Path_674" data-name="Path 674" d="M750.854,363.38s3.062-.178,4.553.616,7.582-2.329,7.111-5.965.413-4.47-3.777-2.885-6.447-1.836-8.6.648c-2.314,2.673-.178,2.732-.2,4.2C749.93,361.649,749.266,363.2,750.854,363.38Z" transform="translate(-570.599 -275.263)" fill="#95b7af"/>
                <path id="Path_675" data-name="Path 675" d="M773.463,397.374s6.322-2.263,7.878-2.633,3.717-1.7.668-4.008-8.374-3.955-7.769-8.459-7.984-6.95-6.5-2.744-3.579,6.474-3.394,10.076-.132,7.5,3.189,5.305S769.62,398.07,773.463,397.374Z" transform="translate(-573.942 -280.293)" fill="#95b7af"/>
                <path id="Path_676" data-name="Path 676" d="M913.241,560.322c.053.445.8,5.543,5.007,3.2s3.56-7.751,6.242-15.586.613-17.7-1.51-13.349-4.069,8.068-8.178,9.408.33,6.344-1.014,9.342S913.241,560.322,913.241,560.322Z" transform="translate(-606.481 -314.473)" fill="#95b7af"/>
                <path id="Path_677" data-name="Path 677" d="M892.106,270.76s-8.341,4.968-8.283,12.559S868.3,295.711,868.7,301.929s-5.852,5.486-6.664,10.5-9.942,3.345-10.984,4.266-8.767,10.41-10.841,4.826S823.02,315.3,823.02,315.3c-6.57-1.875-16.593,5.351-17.362,10.494s-6.515,14.92-10.912,18.649-.16,9.506,3.139,11.619,6.488-2.607,8.574,1.115,1.961,2.07,6.216.768,3.7-12.645,6.646-11.354,1.627.686,1.24,7.675-1.785,6.6-10.9,8.981-12.439,1.586-13.071,5.849-4.933,6.175-8.4,9.184,3.038,5.306,2.8,8.765-5.826,3.146-7.115,2.635-4.62.7-3.383,4.841-2.014,3.751,1.386,9-.6,7.3-.779,10.38-.133,5.744-3.836,7.337-8.085,9.3-6.236,13.095,1.979,6.1.869,10.558,7.548,10.026,12.6,13.459,11.191,3.821,17.464-.492,13.067-1.284,16.337.62-3.537,7.67,2.3,11.323c4.049,1.558,4.327,6.485,6.65,10.893s-.96,5.187-1.483,10.373c-1.072,4.675.551,3.974,4.335,9.292s1.626,7.674,7.4,14.078c3.142,3.339,1.561,7.533,4.292,8.858s7.264-.944,7.264-.944,7.411-1.257,10.358-8.378.389-8.888,4.48-11.574-1.271-6.7,1.861-10.107,8.606-5.494,7.446-14.307-5.488-8.688-2.065-14.731,11.242-4.4,11.551-14.379,4.966-10.349-.022-11.825-2.427-2.831,3.987-8.4.374-12.635,9.994-16.3,8.274.794,15.829,10.3,4.379,18.923,11.163,14.587-3.523-6.138,4.341-17.281,27.349-7.492,34.019-1.939C965.408,357.119,938.035,304.8,892.106,270.76Z" transform="translate(-575.309 -256.961)" fill="#95b7af"/>
              </g>
            </g>
          </g>
        </g>
        <g id="Group_3320" data-name="Group 3320" transform="translate(62.413 31.238)">
          <g id="Group_3313" data-name="Group 3313" transform="translate(70.466 128.564)">
            <path id="Path_678" data-name="Path 678" d="M680.569,508.513a156.064,156.064,0,0,1-27.316-25.044c-12.078-14.151-25.677-36.153-21.873-60.61,2.592-16.663,11.718-27.594,25.7-30.779,15.532-3.538,32.871,3.471,38.718,11.975a28.648,28.648,0,0,1,5.225,14.623c8.109-7.154,18.367-16.746,18.631-28.948l1.423.03c-.288,13.284-11.595,23.379-20.023,30.787-.112,5.193-1.915,9.234-3.963,10.856a3.257,3.257,0,0,1-4.78-.362,2.446,2.446,0,0,1-.664-1.841c.133-2.367,3.408-5.276,7.967-9.283a27.017,27.017,0,0,0-4.991-15.055c-5.587-8.127-22.252-14.8-37.228-11.393-9.459,2.155-21.406,9.042-24.605,29.609-3.721,23.922,9.665,45.542,21.55,59.466a154.4,154.4,0,0,0,27.032,24.791Zm18.973-86.637c-3.533,3.12-6.385,5.781-6.476,7.405a1.032,1.032,0,0,0,.3.8,1.866,1.866,0,0,0,2.843.2C697.8,429.021,699.216,425.929,699.542,421.876Z" transform="translate(-630.017 -389.003)" fill="#ab0700"/>
            <path id="Path_679" data-name="Path 679" d="M679.97,508.9a157.352,157.352,0,0,1-27.458-25.171c-12.175-14.264-25.88-36.457-22.035-61.181,2.64-16.972,11.959-28.11,26.241-31.364a39.364,39.364,0,0,1,8.736-.957c12.335,0,25.545,5.684,30.728,13.222A29.959,29.959,0,0,1,701.409,417c8.446-7.539,17.09-16.47,17.33-27.489l.015-.712,2.847.061-.016.712c-.3,13.622-12.081,24.112-20.031,31.1-.169,4.845-1.812,9.173-4.224,11.084a4.392,4.392,0,0,1-2.706,1.029,4.1,4.1,0,0,1-3.044-1.471,3.177,3.177,0,0,1-.848-2.359c.148-2.65,3.413-5.563,7.962-9.562a26.263,26.263,0,0,0-4.861-14.334c-4.7-6.839-16.872-12-28.309-12a36.9,36.9,0,0,0-8.174.894c-9.244,2.107-20.922,8.852-24.059,29.023-3.68,23.656,9.6,45.085,21.387,58.9a152.593,152.593,0,0,0,26.892,24.666l.586.4-1.6,2.354ZM698.4,423.464c-2.193,1.977-4.755,4.452-4.822,5.653a.326.326,0,0,0,.112.284,1.326,1.326,0,0,0,.944.532,1.572,1.572,0,0,0,.93-.407C696.58,428.72,697.83,426.7,698.4,423.464Z" transform="translate(-629.818 -388.799)" fill="#b2ced1" opacity="0.3"/>
          </g>
          <path id="Path_680" data-name="Path 680" d="M810.569,402.753c-17.086-3.8-23.731-6.17-23.256-17.086" transform="translate(-593.818 -259.549)" fill="none" stroke="#ab0700" stroke-miterlimit="10" stroke-width="2"/>
          <path id="Path_681" data-name="Path 681" d="M810.215,403.44c-16.447-3.655-24.33-5.938-23.812-17.812l1.422.063c-.448,10.289,5.523,12.542,22.7,16.359Z" transform="translate(-593.619 -259.541)" fill="#ab0700"/>
          <path id="Path_682" data-name="Path 682" d="M747.846,523.684s8.031,4.438,26.628,5.706c0,0,36.139,20.077,47.763,28.531a167.454,167.454,0,0,0,24.3,14.371h80.52l7.119-8.662s-53.551-27.9-81.871-40.579-47.825-24.094-47.825-24.094Z" transform="translate(-585.185 -284.346)" fill="#855c48"/>
          <path id="Path_683" data-name="Path 683" d="M866.348,523.052c-28.32-12.681-47.825-24.094-47.825-24.094l-6.541,2.855c2.76,1.593,21.359,12.195,47.456,23.88,28.32,12.68,52.811,44.176,52.811,44.176l24.112,2.423H941.1l7.119-8.662S894.668,535.732,866.348,523.052Z" transform="translate(-599.223 -284.346)" fill="#855c48" opacity="0.16" style="mix-blend-mode: multiply;isolation: isolate"/>
          <path id="Path_684" data-name="Path 684" d="M859.547,569.854a167.511,167.511,0,0,1-24.3-14.371c-11.624-8.454-49.277-27.679-49.277-27.679-18.6-1.269-25.115-6.558-25.115-6.558l46.856-20.456c-2.093-1.171-3.223-1.832-3.223-1.832l-56.639,24.726s8.031,4.438,26.628,5.706c0,0,36.139,20.077,47.763,28.531a167.454,167.454,0,0,0,24.3,14.371h80.52l2-2.439Z" transform="translate(-585.185 -284.346)" fill="#855c48" opacity="0.16" style="mix-blend-mode: screen;isolation: isolate"/>
          <path id="Path_685" data-name="Path 685" d="M804.5,498.958,747.91,521.436s5.758,4.615,22.49,6.1c14.982.359,27.955-4.755,36.448-11.522a16.754,16.754,0,0,0,6.25-12.268C807.6,500.769,804.5,498.958,804.5,498.958Z" transform="translate(-585.199 -284.346)" fill="#855c48" opacity="0.28" style="mix-blend-mode: multiply;isolation: isolate"/>
          <path id="Path_686" data-name="Path 686" d="M642.841,550.56s33.113-23.339,48.488-32.057,13.632-9.669,30.909-7.608,30.274-5.389,39.626-12.839,5.548-19.812,5.548-19.812a21,21,0,0,1,4.121-5.231c2.853-2.694,1.109-13.473-3.646-16.8,0,0,6.34-7.45,5.231-10.779s-4.914-8.083-15.058-5.865-16.167.476-26.311-2.061a41.723,41.723,0,0,0-19.5.159s-23.348,28.575-45.808,42.955c-24.88,15.929-61.639,37.827-74,45.118s-52.837,26.99-52.837,26.99l21.909-3.95Z" transform="translate(-539.606 -270.658)" fill="#ffb88e"/>
          <g id="Group_3314" data-name="Group 3314" transform="translate(80.718 206.351)" opacity="0.14" style="mix-blend-mode: multiply;isolation: isolate">
            <path id="Path_687" data-name="Path 687" d="M790.433,488.911c-.127-.176-.254-.352-.372-.529a16.876,16.876,0,0,1-6.078,12.859c-9.232,7.6-22.108,15.255-39.416,13.47s-15.549-.862-30.782,8.1C700.6,530.566,655,554.991,642.942,561.44l22.517.494s33.113-23.339,48.488-32.057,13.632-9.669,30.909-7.608,30.274-5.389,39.626-12.839,5.547-19.812,5.547-19.812S790.162,489.353,790.433,488.911Z" transform="translate(-642.942 -488.382)" fill="#ffb88e"/>
          </g>
          <path id="Path_688" data-name="Path 688" d="M571.651,564.967c12.162-6.385,40.168-36.8,47.128-41.139,11.752-7.329,25.579-22.62,49.229-38.631,20.087-13.6,40.915-39.819,43.31-42.876a33.752,33.752,0,0,0-4.75.883s-22.436,27.459-44.019,41.277c-23.908,15.306-59.231,36.349-71.111,43.355s-50.772,25.936-50.772,25.936l21.053-3.8Z" transform="translate(-539.838 -271.95)" fill="#ffb88e" opacity="0.17" style="mix-blend-mode: screen;isolation: isolate"/>
          <path id="Path_689" data-name="Path 689" d="M829.825,465.243a9.185,9.185,0,0,1,1.585-3.487" transform="translate(-603.129 -276.204)" fill="none" stroke="#ffb88e" stroke-miterlimit="10" stroke-width="1" opacity="0.59" style="mix-blend-mode: multiply;isolation: isolate"/>
          <path id="Path_690" data-name="Path 690" d="M830.713,489.962a20.674,20.674,0,0,0-1.9,3.011" transform="translate(-602.907 -282.377)" fill="none" stroke="#ffb88e" stroke-miterlimit="10" stroke-width="1" opacity="0.59" style="mix-blend-mode: multiply;isolation: isolate"/>
          <path id="Path_691" data-name="Path 691" d="M787.854,537.377s-4.438.423-5.918.423" transform="translate(-592.647 -292.755)" fill="none" stroke="#8b634f" stroke-miterlimit="10" stroke-width="1" opacity="0.35" style="mix-blend-mode: multiply;isolation: isolate"/>
          <path id="Path_692" data-name="Path 692" d="M704.683,486.336s-6.023-9.193-2.061-14.266,11.571-2.535,16.643-1.109,15.058,4.28,13.473,9.352-2.853,6.975-7.925,6.658-15.586-3.329-15.586-3.329A35.465,35.465,0,0,1,704.683,486.336Z" transform="translate(-574.991 -277.8)" fill="#8b634f"/>
          <path id="Path_693" data-name="Path 693" d="M706.045,485.7a13.143,13.143,0,0,0,4.227,1.585" transform="translate(-576.036 -281.444)" fill="none" stroke="#8b634f" stroke-miterlimit="10" stroke-width="1" opacity="0.35" style="mix-blend-mode: multiply;isolation: isolate"/>
          <path id="Path_694" data-name="Path 694" d="M735.1,479.405s-6.018-3.015-8.56.423c-1.8,2.43-.317,5.5,6.446,5.5A20.9,20.9,0,0,0,735.1,479.405Z" transform="translate(-580.369 -279.799)" fill="#8b634f" opacity="0.39" style="mix-blend-mode: multiply;isolation: isolate"/>
          <path id="Path_695" data-name="Path 695" d="M737.833,433.92s-.317-6.974,2.959-9.616,6.446-3.171,11.941-.951,16.59,8.242,18.6,10.144a73.935,73.935,0,0,0-9.193.212s4.015,3.91,7.608,7.819,5.494,8.771.845,12.786S737.833,433.92,737.833,433.92Z" transform="translate(-582.992 -267.494)" fill="#87604d"/>
          <path id="Path_696" data-name="Path 696" d="M771.47,456.757c-5.786-3.9-12.124-7.574-18.558-12.418s-10.612-7.723-13.669-7.347c-.348.043-.694.082-1.038.123,0,.243.008.384.008.384s27.31,24.53,31.959,20.515C770.509,457.722,771.585,456.835,771.47,456.757Z" transform="translate(-583.075 -270.776)" fill="#8b634f" opacity="0.29" style="mix-blend-mode: multiply;isolation: isolate"/>
          <path id="Path_697" data-name="Path 697" d="M777.893,453.068s-3.767-4.875-7.313-2.548-1.551,6.759,3.214,8.642A6.659,6.659,0,0,0,777.893,453.068Z" transform="translate(-589.766 -273.606)" fill="#8b634f" opacity="0.39" style="mix-blend-mode: multiply;isolation: isolate"/>
          <path id="Path_698" data-name="Path 698" d="M727.4,450.113s-2.325-4.544,0-8.877,5.284-4.332,8.348-4.649,7.186,2.642,13.526,7.608,12.676,8.777,18.387,12.786c6.039,4.239,4.238,9.754,2.112,12.664-2.189,3-7.185,3.82-9.827,1.6S727.4,450.113,727.4,450.113Z" transform="translate(-580.484 -270.69)" fill="#855c48"/>
          <path id="Path_699" data-name="Path 699" d="M777.426,469.7a13.62,13.62,0,0,0-6.129-2.536c-3.064-.211-8.348,5.494-.74,11.1C770.557,478.26,776.475,478.367,777.426,469.7Z" transform="translate(-589.299 -277.386)" fill="#8b634f" opacity="0.39" style="mix-blend-mode: multiply;isolation: isolate"/>
          <path id="Path_700" data-name="Path 700" d="M729.042,446.591a5.731,5.731,0,0,1,2.219-3.91" transform="translate(-581.069 -272.028)" fill="none" stroke="#8b634f" stroke-miterlimit="10" stroke-width="1" opacity="0.35" style="mix-blend-mode: multiply;isolation: isolate"/>
          <path id="Path_701" data-name="Path 701" d="M755.422,464.6s.528-2.748,2.43-3.381" transform="translate(-586.843 -276.085)" fill="none" stroke="#8b634f" stroke-miterlimit="10" stroke-width="1" opacity="0.35" style="mix-blend-mode: multiply;isolation: isolate"/>
          <path id="Path_702" data-name="Path 702" d="M757.18,466.617s.529-3.593,3.064-4.861" transform="translate(-587.228 -276.204)" fill="none" stroke="#8b634f" stroke-miterlimit="10" stroke-width="1" opacity="0.35" style="mix-blend-mode: multiply;isolation: isolate"/>
          <path id="Path_703" data-name="Path 703" d="M760.833,445.023s.845-2.325,2.325-2.747" transform="translate(-588.028 -271.94)" fill="none" stroke="#8b634f" stroke-miterlimit="10" stroke-width="1" opacity="0.35" style="mix-blend-mode: multiply;isolation: isolate"/>
          <path id="Path_704" data-name="Path 704" d="M761.374,429.83a35.6,35.6,0,0,1,5.918,5.6" transform="translate(-588.146 -269.216)" fill="none" stroke="#8b634f" stroke-miterlimit="10" stroke-width="1" opacity="0.35" style="mix-blend-mode: multiply;isolation: isolate"/>
          <path id="Path_705" data-name="Path 705" d="M803.649,436.067a15.943,15.943,0,0,1-6.34-7.714c-1.9-5.177-7.185-12.892-12.681-10.672s-9.616,2.853-13.948,3.8-4.332,4.333-3.592,7.08,4.861,7.925,16.273,5.389C783.361,433.953,796.252,437.863,803.649,436.067Z" transform="translate(-589.316 -266.471)" fill="#8b634f"/>
          <path id="Path_706" data-name="Path 706" d="M769.211,435.049c2.824-.294,8.478-.119,8.478-.119-1.247-1.182-6-3.955-10.746-6.418a8.456,8.456,0,0,0,.3,3.4A7.055,7.055,0,0,0,769.211,435.049Z" transform="translate(-589.351 -268.927)" fill="#8b634f" opacity="0.29" style="mix-blend-mode: multiply;isolation: isolate"/>
          <path id="Path_707" data-name="Path 707" d="M803.649,436.067a15.943,15.943,0,0,1-6.34-7.714c-1.9-5.177-7.185-12.892-12.681-10.672s-9.616,2.853-13.948,3.8-4.332,4.333-3.592,7.08,4.861,7.925,16.273,5.389C783.361,433.953,796.252,437.863,803.649,436.067Z" transform="translate(-589.316 -266.471)" fill="#8b634f"/>
          <path id="Path_708" data-name="Path 708" d="M795.21,433.347a12.324,12.324,0,0,1-7.186,4.121" transform="translate(-593.979 -269.985)" fill="none" stroke="#8b634f" stroke-miterlimit="10" stroke-width="1" opacity="0.35" style="mix-blend-mode: multiply;isolation: isolate"/>
          <path id="Path_709" data-name="Path 709" d="M770.979,422.474s4.649,4.015,6.023,7.5c0,0,5.6,0,5.917-4.015.254-3.216-3.349-4.667-4.8-5.118-2.033.5-3.949.871-5.891,1.287Z" transform="translate(-590.248 -267.249)" fill="#8b634f" opacity="0.39" style="mix-blend-mode: multiply;isolation: isolate"/>
          <path id="Path_710" data-name="Path 710" d="M791.135,420.631a7.309,7.309,0,0,1,2.536,3.8" transform="translate(-594.66 -267.202)" fill="none" stroke="#8b634f" stroke-miterlimit="10" stroke-width="1" opacity="0.35" style="mix-blend-mode: multiply;isolation: isolate"/>
          <path id="Path_711" data-name="Path 711" d="M794.517,420.766a4.154,4.154,0,0,1,1.162,2.431" transform="translate(-595.4 -267.232)" fill="none" stroke="#8b634f" stroke-miterlimit="10" stroke-width="1" opacity="0.35" style="mix-blend-mode: multiply;isolation: isolate"/>
          <path id="Path_712" data-name="Path 712" d="M727.149,454.257l.02.04S755.2,471,757.841,473.221c1.412,1.187,4.319,3.5,6.288,3.085-.681-1.688-1.052-3.117-3.667-4.35a168.758,168.758,0,0,1-22.2-13.27C735.011,456.4,730.454,454.183,727.149,454.257Z" transform="translate(-580.655 -274.562)" fill="#8b634f" opacity="0.29" style="mix-blend-mode: multiply;isolation: isolate"/>
          <path id="Path_713" data-name="Path 713" d="M722.391,471.042c-2.623-.738-3.713-1.494-6.837-1.62l14.727,10.141s1.825.844,5.039,2.461c.181-.5.361-1.044.544-1.63C737.45,475.322,727.464,472.468,722.391,471.042Z" transform="translate(-578.117 -277.881)" fill="#8b634f" opacity="0.29" style="mix-blend-mode: multiply;isolation: isolate"/>
          <path id="Path_714" data-name="Path 714" d="M715.4,466.015s-1.374-6.023.951-9.827,10.461-3.064,16.167.951,15.323,10.779,22.719,14.266,5.284,10.144,3.7,12.364-3.487,4.755-12.257,0-14.266-7.292-14.266-7.292Z" transform="translate(-577.995 -274.44)" fill="#875e4a"/>
          <path id="Path_715" data-name="Path 715" d="M766.18,482.8s-7.186-4.438-9.933-1.8,1.162,7.4,5.389,8.665A13.468,13.468,0,0,0,766.18,482.8Z" transform="translate(-586.823 -280.232)" fill="#8b634f" opacity="0.39" style="mix-blend-mode: multiply;isolation: isolate"/>
          <path id="Path_716" data-name="Path 716" d="M745.14,477.3a8.314,8.314,0,0,1,2.325-3.909" transform="translate(-584.593 -278.75)" fill="none" stroke="#8b634f" stroke-miterlimit="10" stroke-width="1" opacity="0.35" style="mix-blend-mode: multiply;isolation: isolate"/>
          <path id="Path_717" data-name="Path 717" d="M748.387,477.2a12.54,12.54,0,0,1,1.374-2.325" transform="translate(-585.304 -279.076)" fill="none" stroke="#8b634f" stroke-miterlimit="10" stroke-width="1" opacity="0.35" style="mix-blend-mode: multiply;isolation: isolate"/>
          <path id="Path_718" data-name="Path 718" d="M718.761,464.659a9.071,9.071,0,0,1,1.268-4.121" transform="translate(-578.819 -275.937)" fill="none" stroke="#8b634f" stroke-miterlimit="10" stroke-width="1" opacity="0.35" style="mix-blend-mode: multiply;isolation: isolate"/>
          <path id="Path_719" data-name="Path 719" d="M717.408,460.842s.74-3.382,2.747-4.227" transform="translate(-578.523 -275.078)" fill="none" stroke="#8b634f" stroke-miterlimit="10" stroke-width="1" opacity="0.35" style="mix-blend-mode: multiply;isolation: isolate"/>
          <g id="Group_3315" data-name="Group 3315" transform="translate(194.581 134.444)">
            <path id="Path_720" data-name="Path 720" d="M828.947,513.16s31.306-3.541,46.987-41.291c12.814-30.85,1.8-65.983-21.832-68.819-23.731-2.848-46.207,21.331-34.173,25.629,6.644,2.373,13.764-18.509-3.322-22.306" transform="translate(-794.81 -397.747)" fill="none" stroke="#ab0700" stroke-miterlimit="10" stroke-width="2"/>
            <path id="Path_721" data-name="Path 721" d="M869.521,415.545c-5.162-8.834-12.828-14.278-21.587-15.33a33.1,33.1,0,0,0-3.93-.231,43.4,43.4,0,0,0-24.782,8.429c-1.715-3.283-8.406-4.852-8.406-4.852-10.51-2.336-16.625-4.013-19.68-7.235-.075.071-.147.147-.226.212a6.527,6.527,0,0,1-2.2,1.315c3.62,4.17,10.569,6.044,20.568,8.281l-.012.052s6.017,1.256,7.712,3.963c-4.252,3.541-7.129,7.484-7.932,10.894a6.009,6.009,0,0,0,4.066,7.553,4.561,4.561,0,0,0,1.546.271,5.61,5.61,0,0,0,3.785-1.645c2.8-2.585,4.827-8.475,3.375-13.859a12.975,12.975,0,0,0-1.016-2.614,39.683,39.683,0,0,1,22.985-7.934,32.037,32.037,0,0,1,3.806.226c7.967.955,14.7,5.775,19.469,13.938,8.239,14.1,8.717,34.87,1.219,52.92-15.12,36.4-45.529,40.388-45.834,40.424l-.706.08.321,2.83.708-.082c.322-.036,32.335-4.106,48.142-42.159C878.739,452.15,878.193,430.385,869.521,415.545Zm-53.01,9.588a2.94,2.94,0,0,1-1.854.887,1.778,1.778,0,0,1-.587-.1c-2.043-.73-2.758-2.071-2.252-4.22.626-2.661,3.11-6.032,6.7-9.131a10.4,10.4,0,0,1,.547,1.54C820.239,418.449,818.687,423.123,816.511,425.132Z" transform="translate(-788.71 -396.326)" fill="#b2ced1" opacity="0.3"/>
          </g>
          <rect id="Rectangle_175" data-name="Rectangle 175" width="11.963" height="22.896" rx="5.982" transform="matrix(0.799, 0.601, -0.601, 0.799, 234.695, 231.033)" fill="#ffeeed"/>
          <path id="Path_722" data-name="Path 722" d="M802.4,261.184c-2.171-8.41-24.147-19.263-33.642-23.333l-.071-.035c-.077-6.376-5.269-12.565-11.647-12.565a11.667,11.667,0,0,0-11.653,11.619,34.941,34.941,0,0,0-6.743,3.152c-15.917,9.586-25.5,14.289-25.865,21.162s.09,21.161.09,21.161,2.514,48.936,6.511,54.8c5.607,8.23,16.008,7.6,16.008,7.6l.542,14.379s3.528,5.155,11.938.271V345.56h1.679v-.017h11.343v-.073h7.145V358.04s6.782,5.878,12.48,0V345.831s10.943.814,15.1-11.938S804.566,269.595,802.4,261.184Zm-45.361-31.937c4.177,0,7.525,2.929,7.6,7.081a32.451,32.451,0,0,0-15.358-.528C749.365,231.677,752.867,229.247,757.035,229.247Z" transform="translate(-577.478 -224.438)" fill="#7c8f91" opacity="0.14" style="mix-blend-mode: multiply;isolation: isolate"/>
          <path id="Path_723" data-name="Path 723" d="M843.753,528.216a5.863,5.863,0,0,1-1.165,3.13l-6.676,8.879a5.893,5.893,0,0,1-8.252,1.169l-.141-.106a5.87,5.87,0,0,1-2.029-2.785,5.886,5.886,0,0,0,2.334,5.123l.141.106a5.893,5.893,0,0,0,8.252-1.169l6.676-8.879A5.89,5.89,0,0,0,843.753,528.216Z" transform="translate(-602.176 -290.75)" fill="#ffeeed" style="mix-blend-mode: multiply;isolation: isolate"/>
          <g id="Group_3318" data-name="Group 3318" transform="translate(131.905)">
            <path id="Path_724" data-name="Path 724" d="M798.233,262.907c-2.171-8.41-24.146-19.262-33.642-23.332a32.171,32.171,0,0,0-30.115,2.171c-15.917,9.586-25.5,14.288-25.865,21.161s.091,21.162.091,21.162,2.513,48.935,6.511,54.8c5.607,8.229,16.007,7.6,16.007,7.6l.543,14.379s3.527,5.155,11.937.272V347.283h1.68v-.017h11.343v-.073h7.144v12.571s6.782,5.879,12.48,0V347.555s10.943.814,15.1-11.937S800.4,271.318,798.233,262.907Z" transform="translate(-708.471 -226.974)" fill="#b2ced1" opacity="0.76"/>
            <path id="Path_725" data-name="Path 725" d="M761.922,287.588c-19.627,4.454-39.68-1.8-47.88-4.924.045,5.719.215,11.2.216,11.257.651,15.808,2.054,33.662,3.631,44.03a16.844,16.844,0,0,0,14.564,14.185c.2.025.314.035.322.036l3.856.3.614,16.283a3.182,3.182,0,0,0,1.033.158h0a6.78,6.78,0,0,0,2.3-.477V352.973h12.48l2.622-.091h13.747v14.557a5.681,5.681,0,0,0,2.371.626,2.981,2.981,0,0,0,1.427-.348V357.585l-.113-4.809,4.751.478.1,0c1.8,0,7.871-.646,10.581-8.954,3.233-9.911,6.523-41.732,7.061-59.258C792.128,284.294,781.921,283.049,761.922,287.588Z" transform="translate(-709.691 -237.004)" fill="#ab0700"/>
            <path id="Path_726" data-name="Path 726" d="M795.246,265.209c-1.151-4.463-14.834-13.435-31.149-20.427l-.152-.066-.147-.077a26.329,26.329,0,0,0-10.909-2.243,28.684,28.684,0,0,0-14.957,4.284c-2.057,1.24-4.01,2.4-5.851,3.489-10.29,6.1-17.725,10.514-17.917,14.182-.348,6.611.089,20.656.092,20.755.651,15.808,2.054,33.662,3.631,44.03a16.844,16.844,0,0,0,14.564,14.185c.2.025.314.035.322.036l3.856.3.614,16.283a3.182,3.182,0,0,0,1.033.158h0a6.78,6.78,0,0,0,2.3-.477V344.159l12.459.009,2.656-.094,13.734-.006v14.557a5.681,5.681,0,0,0,2.371.626,2.981,2.981,0,0,0,1.427-.348V348.771l-.113-4.809,4.751.478.1,0c1.8,0,7.871-.646,10.581-8.954C792.76,322.553,797.076,272.3,795.246,265.209Z" transform="translate(-709.688 -228.191)" fill="#e2f3f5" opacity="0.21" style="mix-blend-mode: screen;isolation: isolate"/>
            <g id="Group_3317" data-name="Group 3317" transform="translate(32.747)" opacity="0.61">
              <g id="Group_3316" data-name="Group 3316">
                <path id="Path_727" data-name="Path 727" d="M773.7,236.92l-4.052-1.5c0-4.223-3.38-7.214-7.6-7.214s-7.77,2.492-7.77,6.715l-3.885.944a11.668,11.668,0,0,1,11.654-11.655C768.475,224.21,773.7,230.493,773.7,236.92Z" transform="translate(-750.394 -224.21)" fill="#b2ced1"/>
              </g>
            </g>
          </g>
          <g id="Group_3319" data-name="Group 3319" transform="translate(219.342 234.313)">
            <line id="Line_6" data-name="Line 6" x2="6.3" y2="3.861" transform="translate(0 2.439)" fill="none" stroke="#8b634f" stroke-miterlimit="10" stroke-width="1" opacity="0.35" style="mix-blend-mode: multiply;isolation: isolate"/>
            <line id="Line_7" data-name="Line 7" x2="6.3" y2="3.861" transform="translate(0.203)" fill="none" stroke="#8b634f" stroke-miterlimit="10" stroke-width="1" opacity="0.35" style="mix-blend-mode: multiply;isolation: isolate"/>
          </g>
          <path id="Path_728" data-name="Path 728" d="M776.251,323.055H764.97V311.774h-9.025v11.281H744.665v9.025h11.281V343.36h9.025V332.079h11.281Z" transform="translate(-584.489 -243.376)" fill="#fff"/>
          <path id="Path_729" data-name="Path 729" d="M723.143,271.555a3.09,3.09,0,0,1-3.493-3.973c.794-2.416,2.883-5.5,8.087-8.1,10.3-5.148,21.135-13.278,26.283-9.213s-11.11,8.4-18.967,12.193C728.462,265.64,728.543,270.538,723.143,271.555Z" transform="translate(-578.98 -229.672)" fill="#fff" opacity="0.47" style="mix-blend-mode: screen;isolation: isolate"/>
          <path id="Path_730" data-name="Path 730" d="M740.62,352.136a3.723,3.723,0,0,1-.612,7.341c-3.225.2-7.253.171-10.123-.827-5.557-1.932-4.59-9.663-6.765-15.945s-1.208-12.8,2.9-12.321,5.316,12.321,5.074,17.878C730.958,351.373,736.354,351.151,740.62,352.136Z" transform="translate(-579.526 -247.443)" fill="#fff" opacity="0.18" style="mix-blend-mode: screen;isolation: isolate"/>
          <path id="Path_731" data-name="Path 731" d="M799.562,261.5s11.717,3.515,9.764,27.339S807.764,336.878,798,343.518c0,0,7.03-40.228,3.906-58.584S799.562,261.5,799.562,261.5Z" transform="translate(-596.163 -232.372)" fill="#a7b4b5" opacity="0.21" style="mix-blend-mode: multiply;isolation: isolate"/>
        </g>
        <g id="Group_3327" data-name="Group 3327" transform="translate(165.673 27.032)">
          <g id="Group_3321" data-name="Group 3321" transform="translate(122.836 117.181)">
            <path id="Path_732" data-name="Path 732" d="M831.961,385.6s-6.453-14.368-.123-16.591c4.393-1.543,4.02,8.031,4.02,8.031s4.652-5.043,8.186-3.064C848.279,376.348,839.668,384.238,831.961,385.6Z" transform="translate(-829.056 -368.842)" fill="#ab0700"/>
            <path id="Path_733" data-name="Path 733" d="M834.744,372.351s-3.4-3.293-3.484,4.371" transform="translate(-829.539 -369.456)" fill="none" stroke="#fff" stroke-miterlimit="10" stroke-width="2" opacity="0.18" style="mix-blend-mode: screen;isolation: isolate"/>
          </g>
          <g id="Group_3322" data-name="Group 3322" transform="translate(124.183 98.363)">
            <path id="Path_734" data-name="Path 734" d="M832.366,353.893s-3.52-7.837-.068-9.049c2.4-.842,2.193,4.38,2.193,4.38s2.537-2.751,4.465-1.672C841.267,348.846,836.569,353.149,832.366,353.893Z" transform="translate(-830.781 -344.751)" fill="#ab0700"/>
            <path id="Path_735" data-name="Path 735" d="M833.883,346.666s-1.857-1.8-1.9,2.384" transform="translate(-831.044 -345.086)" fill="none" stroke="#fff" stroke-miterlimit="10" stroke-width="2" opacity="0.18" style="mix-blend-mode: screen;isolation: isolate"/>
          </g>
          <g id="Group_3323" data-name="Group 3323" transform="translate(25.284 9.812)">
            <path id="Path_736" data-name="Path 736" d="M711.239,242.211s-9.048-4.835-6.672-8.5c1.65-2.546,5.271,2.538,5.271,2.538s.388-4.452,3-4.84C715.964,230.942,714.668,238.438,711.239,242.211Z" transform="translate(-704.17 -231.387)" fill="#ab0700"/>
            <path id="Path_737" data-name="Path 737" d="M707.283,234.921s-3.067-.341-.055,3.64" transform="translate(-704.549 -232.159)" fill="none" stroke="#fff" stroke-miterlimit="10" stroke-width="2" opacity="0.18" style="mix-blend-mode: screen;isolation: isolate"/>
          </g>
          <g id="Group_3324" data-name="Group 3324" transform="translate(0 78.18)">
            <path id="Path_738" data-name="Path 738" d="M678.069,328.852s-8.185-4.812-5.848-8.113c1.622-2.292,4.778,2.545,4.778,2.545s.527-4.1,2.956-4.362C682.863,318.61,681.382,325.493,678.069,328.852Z" transform="translate(-671.801 -318.912)" fill="#ab0700"/>
            <path id="Path_739" data-name="Path 739" d="M674.714,321.881s-2.823-.432-.188,3.364" transform="translate(-672.151 -319.558)" fill="none" stroke="#fff" stroke-miterlimit="10" stroke-width="2" opacity="0.18" style="mix-blend-mode: screen;isolation: isolate"/>
          </g>
          <g id="Group_3325" data-name="Group 3325" transform="translate(1.269 102.263)">
            <path id="Path_740" data-name="Path 740" d="M688.927,370.946s-18.592-6.764-15.054-14.412c2.456-5.309,10.755,3.408,10.755,3.408s-.472-8.6,4.4-10.056C694.876,348.146,694.446,362.81,688.927,370.946Z" transform="translate(-673.426 -349.744)" fill="#ab0700"/>
            <path id="Path_741" data-name="Path 741" d="M679.188,358.7s-5.947.184.889,6.964" transform="translate(-674.162 -351.704)" fill="none" stroke="#fff" stroke-miterlimit="10" stroke-width="2" opacity="0.18" style="mix-blend-mode: screen;isolation: isolate"/>
          </g>
          <g id="Group_3326" data-name="Group 3326" transform="translate(122.093)">
            <path id="Path_742" data-name="Path 742" d="M832.965,239.9s-9.559-17.321-1.865-20.757c5.341-2.384,5.861,9.639,5.861,9.639s5.3-6.792,9.932-4.679C852.439,226.63,842.472,237.395,832.965,239.9Z" transform="translate(-828.105 -218.825)" fill="#ab0700"/>
            <path id="Path_743" data-name="Path 743" d="M835.068,223.072s-4.6-3.771-3.91,5.831" transform="translate(-828.758 -219.595)" fill="none" stroke="#fff" stroke-miterlimit="10" stroke-width="2" opacity="0.18" style="mix-blend-mode: screen;isolation: isolate"/>
          </g>
        </g>
      </g>
    </g>
  </g>
</svg>
