<svg xmlns="http://www.w3.org/2000/svg" width="23.328" height="29.075" viewBox="0 0 23.328 29.075">
  <g id="XMLID_203_" transform="translate(0 -0.651)">
    <path id="XMLID_219_" d="M11.664.651C7.763,4.35,0,12.653,0,18.062A11.677,11.677,0,0,0,11.664,29.726l.648-14.538Z" fill="#ff8066"/>
    <path id="XMLID_215_" d="M180,29.726a11.677,11.677,0,0,0,11.664-11.664c0-5.423-7.741-13.674-11.664-17.411Z" transform="translate(-168.336 0)" fill="#ff4d4d"/>
    <path id="XMLID_214_" d="M75,171.153a6.812,6.812,0,0,0,6.8,6.8l.648-6.8-.648-6.8A6.812,6.812,0,0,0,75,171.153Z" transform="translate(-70.14 -153.091)" fill="#fff5f5"/>
    <path id="XMLID_211_" d="M180,164.349v13.608a6.8,6.8,0,0,0,0-13.608Z" transform="translate(-168.336 -153.091)" fill="#ece6f2"/>
    <path id="XMLID_208_" d="M136.944,226.293H135v1.944h1.944v1.944h.972l.648-2.916-.648-2.916h-.972Z" transform="translate(-126.252 -209.203)" fill="#ff4d4d"/>
    <path id="XMLID_204_" d="M180.972,230.181v-1.944h1.944v-1.944h-1.944v-1.944H180v5.832Z" transform="translate(-168.336 -209.203)" fill="#cd0000"/>
  </g>
</svg>
