<svg xmlns="http://www.w3.org/2000/svg" width="167" height="167" viewBox="0 0 167 167">
  <g id="Group_18107" data-name="Group 18107" transform="translate(-124 -125)">
    <circle id="Ellipse_98" data-name="Ellipse 98" cx="83.5" cy="83.5" r="83.5" transform="translate(124 125)" fill="#e9e9e9"/>
    <g id="Group_3615" data-name="Group 3615" transform="translate(81.499 98.952)">
      <g id="Group_3444" data-name="Group 3444" transform="translate(53.332 99.915)">
        <path id="Path_784" data-name="Path 784" d="M53.332,214v17.615a5.77,5.77,0,0,0,5.77,5.771h63.161a5.771,5.771,0,0,0,5.771-5.771V216.731l7.863-8.262-76.777-.24A5.77,5.77,0,0,0,53.332,214Z" transform="translate(-53.332 -208.229)" fill="#f5f5f5"/>
        <g id="Group_3441" data-name="Group 3441" transform="translate(8.077 8.645)">
          <path id="Path_785" data-name="Path 785" d="M132.49,233.635l-57.315-.265.006-1.762,57.315.265Z" transform="translate(-75.176 -231.609)" fill="#e0e0e0"/>
        </g>
        <g id="Group_3442" data-name="Group 3442" transform="translate(8.077 14.441)">
          <path id="Path_786" data-name="Path 786" d="M132.49,249.308l-57.315-.265.006-1.762,57.315.265Z" transform="translate(-75.176 -247.282)" fill="#e0e0e0"/>
        </g>
        <g id="Group_3443" data-name="Group 3443" transform="translate(42.714 20.243)">
          <rect id="Rectangle_237" data-name="Rectangle 237" width="1.762" height="22.678" transform="translate(0 1.762) rotate(-89.718)" fill="#e0e0e0"/>
        </g>
      </g>
      <g id="Group_3448" data-name="Group 3448" transform="translate(111.857 160.78)">
        <path id="Path_787" data-name="Path 787" d="M211.6,378.6v17.615a5.77,5.77,0,0,0,5.77,5.771h63.161a5.771,5.771,0,0,0,5.771-5.771V381.33l7.863-8.262-76.777-.24A5.771,5.771,0,0,0,211.6,378.6Z" transform="translate(-211.602 -372.828)" fill="#f5f5f5"/>
        <g id="Group_3445" data-name="Group 3445" transform="translate(8.352 8.188)">
          <path id="Path_788" data-name="Path 788" d="M291.5,397l-57.315-.265.006-1.762,57.315.265Z" transform="translate(-234.188 -394.971)" fill="#e0e0e0"/>
        </g>
        <g id="Group_3446" data-name="Group 3446" transform="translate(8.352 13.984)">
          <path id="Path_789" data-name="Path 789" d="M291.5,412.671l-57.315-.265.006-1.762,57.315.265Z" transform="translate(-234.188 -410.644)" fill="#e0e0e0"/>
        </g>
        <g id="Group_3447" data-name="Group 3447" transform="translate(42.988 19.786)">
          <rect id="Rectangle_238" data-name="Rectangle 238" width="1.762" height="22.678" transform="translate(0 1.762) rotate(-89.718)" fill="#e0e0e0"/>
        </g>
      </g>
      <path id="Path_790" data-name="Path 790" d="M144.63,44.39h37.253a3.339,3.339,0,0,1,3.339,3.339V65.95a3.339,3.339,0,0,1-3.339,3.339H150.271a3.339,3.339,0,0,1-3.339-3.339V46.692Z" transform="translate(-57.538 -5.059)" fill="#f5f5f5"/>
      <g id="Group_3452" data-name="Group 3452" transform="translate(53.927 53.218)">
        <path id="Path_791" data-name="Path 791" d="M109.7,85.771V97.454a3.827,3.827,0,0,1-3.827,3.828H63.983a3.827,3.827,0,0,1-3.828-3.828V87.583L54.94,82.1l50.922-.159A3.827,3.827,0,0,1,109.7,85.771Z" transform="translate(-54.94 -81.944)" fill="#e0e0e0"/>
        <g id="Group_3449" data-name="Group 3449" transform="translate(11.387 5.734)">
          <path id="Path_792" data-name="Path 792" d="M85.737,98.795l38.014-.176,0-1.168-38.014.176Z" transform="translate(-85.733 -97.451)" fill="#f5f5f5"/>
        </g>
        <g id="Group_3450" data-name="Group 3450" transform="translate(11.387 9.578)">
          <path id="Path_793" data-name="Path 793" d="M85.737,109.19l38.014-.176,0-1.168-38.014.176Z" transform="translate(-85.733 -107.846)" fill="#f5f5f5"/>
        </g>
        <g id="Group_3451" data-name="Group 3451" transform="translate(11.385 13.426)">
          <rect id="Rectangle_239" data-name="Rectangle 239" width="15.041" height="1.168" transform="translate(0 0.074) rotate(-0.282)" fill="#f5f5f5"/>
        </g>
      </g>
      <g id="Group_3456" data-name="Group 3456" transform="translate(133.285 107.394)">
        <path id="Path_794" data-name="Path 794" d="M324.313,232.281v11.683a3.827,3.827,0,0,1-3.828,3.827H278.594a3.827,3.827,0,0,1-3.828-3.827v-9.872l-5.215-5.479,50.922-.159A3.827,3.827,0,0,1,324.313,232.281Z" transform="translate(-269.551 -228.454)" fill="#e0e0e0"/>
        <g id="Group_3453" data-name="Group 3453" transform="translate(11.387 5.734)">
          <path id="Path_795" data-name="Path 795" d="M300.348,245.305l38.014-.176,0-1.168-38.014.176Z" transform="translate(-300.344 -243.961)" fill="#f5f5f5"/>
        </g>
        <g id="Group_3454" data-name="Group 3454" transform="translate(11.387 9.578)">
          <path id="Path_796" data-name="Path 796" d="M300.348,255.7l38.014-.176,0-1.168-38.014.176Z" transform="translate(-300.344 -254.356)" fill="#f5f5f5"/>
        </g>
        <g id="Group_3455" data-name="Group 3455" transform="translate(11.385 13.426)">
          <rect id="Rectangle_240" data-name="Rectangle 240" width="15.041" height="1.168" transform="translate(0 0.074) rotate(-0.282)" fill="#f5f5f5"/>
        </g>
      </g>
      <g id="Group_3474" data-name="Group 3474" transform="translate(146.539 124.501)">
        <g id="Group_3458" data-name="Group 3458">
          <g id="Group_3457" data-name="Group 3457">
            <path id="Path_797" data-name="Path 797" d="M311.016,319.436c-6.261-6.1-6.364-15.527-4.735-23.723.271-1.368.358-2.843,1.21-3.943a2.839,2.839,0,0,1,3.651-.893c.943.648,1.194,1.91,1.6,2.986a8.153,8.153,0,0,0,2.722,3.61,3.106,3.106,0,0,0,2.783.718c1.294-.46,1.7-2.077,1.918-3.447l1.2-7.658a12.924,12.924,0,0,1,1.078-4,4.3,4.3,0,0,1,3.137-2.433,2.608,2.608,0,0,1,2.9,2.246,12.883,12.883,0,0,1-.24,1.71,1.458,1.458,0,0,0,.62,1.492,1.676,1.676,0,0,0,1.605-.382,18.429,18.429,0,0,0,4.073-4.4,25.577,25.577,0,0,1,3.879-4.59,7.5,7.5,0,0,1,5.473-1.991,4.489,4.489,0,0,1,4.048,3.766c.181,2.01-1.265,3.783-2.745,5.144a30.945,30.945,0,0,1-7.351,5.02,2.546,2.546,0,0,0-1.251.97c-.447.863.269,1.911,1.121,2.358a16.041,16.041,0,0,0,3.134.882,3.118,3.118,0,0,1,2.364,2.035c.331,1.49-1.078,2.764-2.386,3.536a26.515,26.515,0,0,1-8.475,3.2,8.938,8.938,0,0,0-3.107.927,2.566,2.566,0,0,0-1.286,2.768,2.613,2.613,0,0,0,2.627,1.536,18.5,18.5,0,0,0,3.19-.655c2-.4,4.4.125,5.342,1.947a4.387,4.387,0,0,1-.166,3.9,10.117,10.117,0,0,1-2.628,3.042,26.659,26.659,0,0,1-12.526,6.055c-4.609.8-8.718.546-12.793-1.749" transform="translate(-305.393 -274.717)" fill="#e8505b"/>
          </g>
        </g>
        <g id="Group_3461" data-name="Group 3461" transform="translate(4.514 1.596)">
          <g id="Group_3460" data-name="Group 3460">
            <g id="Group_3459" data-name="Group 3459">
              <path id="Path_798" data-name="Path 798" d="M317.6,328.247a60.879,60.879,0,0,1,4.082-10.91,124.214,124.214,0,0,1,7.028-12.4l2.009-3.156c.662-1.034,1.318-2.06,2.022-3.024a62.044,62.044,0,0,1,4.362-5.306c1.469-1.621,2.922-3.105,4.291-4.483s2.676-2.634,3.913-3.73a49.185,49.185,0,0,1,6.215-4.733c.775-.5,1.389-.867,1.808-1.11l.478-.274a1.088,1.088,0,0,1,.168-.085.976.976,0,0,1-.154.108l-.466.3c-.41.258-1.015.639-1.781,1.15a52.025,52.025,0,0,0-6.149,4.785c-1.226,1.1-2.519,2.364-3.882,3.744s-2.807,2.871-4.268,4.492a62.762,62.762,0,0,0-4.333,5.295c-.7.96-1.348,1.977-2.011,3.014l-2.007,3.155a127.338,127.338,0,0,0-7.032,12.368,61.945,61.945,0,0,0-4.118,10.853" transform="translate(-317.601 -279.032)" fill="#263238"/>
            </g>
          </g>
        </g>
        <g id="Group_3464" data-name="Group 3464" transform="translate(19.685 5.94)">
          <g id="Group_3463" data-name="Group 3463">
            <g id="Group_3462" data-name="Group 3462">
              <path id="Path_799" data-name="Path 799" d="M358.67,306.16a2.806,2.806,0,0,1-.038-.605c-.01-.39-.006-.954.01-1.651.03-1.394.136-3.318.262-5.438s.2-4.041.213-5.431c.006-.7.005-1.258,0-1.647a2.794,2.794,0,0,1,.021-.606,2.734,2.734,0,0,1,.078.6c.036.389.064.953.081,1.65.038,1.4-.013,3.324-.138,5.447-.129,2.092-.246,3.985-.336,5.431-.037.653-.067,1.2-.091,1.646A2.748,2.748,0,0,1,358.67,306.16Z" transform="translate(-358.627 -290.781)" fill="#263238"/>
            </g>
          </g>
        </g>
        <g id="Group_3467" data-name="Group 3467" transform="translate(19.728 20.403)">
          <g id="Group_3466" data-name="Group 3466">
            <g id="Group_3465" data-name="Group 3465">
              <path id="Path_800" data-name="Path 800" d="M376.873,330.4a3.909,3.909,0,0,1-.716-.031c-.458-.034-1.12-.086-1.941-.125-1.64-.09-3.909-.135-6.415-.074s-4.772.219-6.408.379c-.819.074-1.48.152-1.937.2a3.813,3.813,0,0,1-.714.056,3.829,3.829,0,0,1,.7-.155c.454-.081,1.113-.187,1.932-.285,1.635-.206,3.907-.39,6.421-.456a62.824,62.824,0,0,1,6.432.151c.821.062,1.483.142,1.94.207A3.762,3.762,0,0,1,376.873,330.4Z" transform="translate(-358.744 -329.893)" fill="#263238"/>
            </g>
          </g>
        </g>
        <g id="Group_3470" data-name="Group 3470" transform="translate(3.684 15.696)">
          <g id="Group_3469" data-name="Group 3469">
            <g id="Group_3468" data-name="Group 3468">
              <path id="Path_801" data-name="Path 801" d="M320.537,341.081a.927.927,0,0,1-.085-.234l-.2-.686c-.168-.6-.389-1.465-.647-2.543-.519-2.154-1.142-5.152-1.785-8.47s-1.237-6.319-1.71-8.48l-.568-2.559-.151-.7a.913.913,0,0,1-.035-.248.944.944,0,0,1,.085.235l.2.685c.168.6.389,1.465.647,2.543.519,2.154,1.142,5.152,1.785,8.471s1.237,6.318,1.71,8.48l.568,2.559.151.7A.9.9,0,0,1,320.537,341.081Z" transform="translate(-315.357 -317.164)" fill="#263238"/>
            </g>
          </g>
        </g>
        <g id="Group_3473" data-name="Group 3473" transform="translate(8.865 35.9)">
          <g id="Group_3472" data-name="Group 3472">
            <g id="Group_3471" data-name="Group 3471">
              <path id="Path_802" data-name="Path 802" d="M353.976,371.809a.958.958,0,0,1-.248.058l-.716.117-2.636.4c-2.226.339-5.294.844-8.685,1.405s-6.467,1.038-8.7,1.332c-1.116.147-2.021.257-2.648.32l-.722.069a.938.938,0,0,1-.254.006.966.966,0,0,1,.248-.058l.716-.116,2.635-.4c2.226-.339,5.295-.843,8.686-1.405s6.466-1.038,8.7-1.331c1.117-.147,2.021-.257,2.648-.32l.722-.068A.932.932,0,0,1,353.976,371.809Z" transform="translate(-329.367 -371.804)" fill="#263238"/>
            </g>
          </g>
        </g>
      </g>
      <g id="Group_3478" data-name="Group 3478" transform="translate(76.455 73.366)">
        <path id="Path_803" data-name="Path 803" d="M149.867,157.262a4.116,4.116,0,0,1-1.415-3.883,5.466,5.466,0,0,1,2.353-3.507,2.3,2.3,0,0,1,1.877-.489,1.76,1.76,0,0,1,1.139,1.373,3.572,3.572,0,0,1-.214,1.841c-.7,2.027-1.752,3.859-3.739,4.665" transform="translate(-136.365 -144.558)" fill="#455a64"/>
        <path id="Path_804" data-name="Path 804" d="M129.824,175.957a9.629,9.629,0,0,0-8.51-2.228c-.756.175-1.608.575-1.732,1.342s.561,1.419,1.234,1.809a8.225,8.225,0,0,0,9.1-.732" transform="translate(-118.198 -159.791)" fill="#455a64"/>
        <path id="Path_805" data-name="Path 805" d="M116.636,136.573a4.825,4.825,0,0,1,3.723.641A8.517,8.517,0,0,1,123.021,140a15.03,15.03,0,0,1,1.871,7.467c-2.78-.112-5.156-2.3-6.291-3.482-1.795-1.872-3.9-6.344-1.965-7.407" transform="translate(-115.864 -136.432)" fill="#455a64"/>
        <g id="Group_3475" data-name="Group 3475" transform="translate(13.41 8.05)">
          <path id="Path_806" data-name="Path 806" d="M154.55,170.1a9.936,9.936,0,0,1-.694-1.048,17.651,17.651,0,0,1-1.566-4.464,8.855,8.855,0,0,1,.347-4.709,5.8,5.8,0,0,1,.672-1.276,1.626,1.626,0,0,1,.344-.4,12.316,12.316,0,0,0-.829,1.745,9.288,9.288,0,0,0-.258,4.591,20.469,20.469,0,0,0,1.47,4.431" transform="translate(-152.128 -158.202)" fill="#263238"/>
        </g>
        <g id="Group_3476" data-name="Group 3476" transform="translate(2.676 3.405)">
          <path id="Path_807" data-name="Path 807" d="M136.282,162.217l-1.448-1.867c-1.218-1.579-2.907-3.757-4.8-6.138s-3.642-4.511-4.91-6.051l-1.5-1.828a5.1,5.1,0,0,1-.523-.693,5.171,5.171,0,0,1,.606.622c.377.412.912,1.017,1.566,1.771,1.308,1.508,3.079,3.622,4.978,6s3.564,4.582,4.742,6.193c.589.805,1.06,1.462,1.377,1.921" transform="translate(-123.101 -145.64)" fill="#263238"/>
        </g>
        <g id="Group_3477" data-name="Group 3477" transform="translate(4.852 15.219)">
          <path id="Path_808" data-name="Path 808" d="M128.987,177.954a1.743,1.743,0,0,1,.482-.147,4.016,4.016,0,0,1,.581-.111,6.78,6.78,0,0,1,.78-.084,10.13,10.13,0,0,1,2.042.078,10.828,10.828,0,0,1,4.639,1.8,10.128,10.128,0,0,1,1.558,1.323,6.829,6.829,0,0,1,.518.589,4.034,4.034,0,0,1,.353.474c.18.27.155.4.139.408a16.327,16.327,0,0,0-1.151-1.33,11.321,11.321,0,0,0-1.563-1.249,11.436,11.436,0,0,0-4.532-1.763,11.3,11.3,0,0,0-2-.135C129.7,177.839,129,178.008,128.987,177.954Z" transform="translate(-128.987 -177.59)" fill="#263238"/>
        </g>
      </g>
      <g id="Group_3487" data-name="Group 3487" transform="translate(91.37 57.424)">
        <g id="Group_3486" data-name="Group 3486" transform="translate(0 0)">
          <g id="Group_3482" data-name="Group 3482">
            <g id="Group_3481" data-name="Group 3481">
              <g id="Group_3479" data-name="Group 3479">
                <path id="Path_809" data-name="Path 809" d="M208.17,219.2l-42.709-.2a9.3,9.3,0,0,1-9.261-9.343l.453-107.074A9.3,9.3,0,0,1,166,93.32l42.71.2a9.3,9.3,0,0,1,9.26,9.343l-.453,107.074A9.3,9.3,0,0,1,208.17,219.2Z" transform="translate(-156.2 -93.32)" fill="#263238"/>
              </g>
              <g id="Group_3480" data-name="Group 3480" transform="translate(2.836 3.696)">
                <path id="Path_810" data-name="Path 810" d="M213.482,103.511l-8.281-.038a2.057,2.057,0,0,0-2.019,2.093l-.007,1.5a2.056,2.056,0,0,1-2.019,2.093l-16.141-.074a2.059,2.059,0,0,1-2-2.111l.007-1.5a2.059,2.059,0,0,0-2-2.111l-2.912-.013-7.248-.034a6.516,6.516,0,0,0-6.546,6.488l-.442,104.512a6.516,6.516,0,0,0,6.486,6.544l42.624.2a6.516,6.516,0,0,0,6.545-6.488l.442-104.512A6.516,6.516,0,0,0,213.482,103.511Z" transform="translate(-163.87 -103.314)" fill="#fafafa"/>
              </g>
            </g>
          </g>
          <g id="Group_3483" data-name="Group 3483" transform="translate(26.566 110.671)">
            <path id="Path_811" data-name="Path 811" d="M229.8,393.368a.89.89,0,1,1-.876-.76A.824.824,0,0,1,229.8,393.368Z" transform="translate(-228.043 -392.608)" fill="#455a64"/>
          </g>
          <g id="Group_3484" data-name="Group 3484" transform="translate(29.291 110.683)">
            <path id="Path_812" data-name="Path 812" d="M237.172,393.4a.889.889,0,1,1-.876-.76A.824.824,0,0,1,237.172,393.4Z" transform="translate(-235.413 -392.642)" fill="#455a64"/>
          </g>
          <g id="Group_3485" data-name="Group 3485" transform="translate(32.016 110.696)">
            <path id="Path_813" data-name="Path 813" d="M244.541,393.436a.89.89,0,1,1-.876-.76A.824.824,0,0,1,244.541,393.436Z" transform="translate(-242.782 -392.676)" fill="#455a64"/>
          </g>
        </g>
      </g>
      <path id="Path_814" data-name="Path 814" d="M199.517,240.1c.694.1,42.593,8.317,42.593,8.317V240.1Z" transform="translate(-92.129 -128.4)" fill="#ebebeb"/>
      <path id="Path_815" data-name="Path 815" d="M163.869,372.236s45.578-6.448,45.181-6.25-45.181,0-45.181,0Z" transform="translate(-69.663 -207.733)" fill="#ebebeb"/>
      <g id="Group_3488" data-name="Group 3488" transform="translate(147.04 42.48)">
        <path id="Path_816" data-name="Path 816" d="M306.845,52.9c.053,0,.1,2.3.1,5.146s-.043,5.147-.1,5.147-.1-2.3-.1-5.147S306.791,52.9,306.845,52.9Z" transform="translate(-306.748 -52.905)" fill="#263238"/>
      </g>
      <g id="Group_3489" data-name="Group 3489" transform="translate(155.958 54.322)">
        <path id="Path_817" data-name="Path 817" d="M340.281,84.932c.021.049-2.069,1.019-4.669,2.166s-4.726,2.039-4.747,1.99,2.069-1.018,4.67-2.166S340.26,84.883,340.281,84.932Z" transform="translate(-330.865 -84.93)" fill="#263238"/>
      </g>
      <g id="Group_3490" data-name="Group 3490" transform="translate(153.084 36.363)">
        <path id="Path_818" data-name="Path 818" d="M334.922,36.363a.987.987,0,0,1-.1.2l-.316.545c-.276.473-.69,1.149-1.206,1.98-1.035,1.661-2.526,3.919-4.213,6.381s-3.195,4.706-4.258,6.347l-1.257,1.945-.347.526a.941.941,0,0,1-.132.176.936.936,0,0,1,.1-.2l.316-.545c.276-.473.69-1.148,1.206-1.979,1.035-1.661,2.526-3.919,4.214-6.382s3.194-4.7,4.258-6.346l1.257-1.946.346-.526A.939.939,0,0,1,334.922,36.363Z" transform="translate(-323.092 -36.363)" fill="#263238"/>
      </g>
      <g id="Group_3496" data-name="Group 3496" transform="translate(103.856 79.896)">
        <path id="Path_819" data-name="Path 819" d="M276.59,154.092H193.225a3.26,3.26,0,0,0-3.26,3.26v25.859a3.261,3.261,0,0,0,3.26,3.26h6.21c.5,2.7,1.086,6.108,1.086,6.108l5.621-6.108H276.59a3.26,3.26,0,0,0,3.26-3.26V157.352A3.26,3.26,0,0,0,276.59,154.092Z" transform="translate(-189.965 -154.092)" fill="#e8505b"/>
        <g id="Group_3495" data-name="Group 3495" transform="translate(7.911 9.956)">
          <g id="Group_3491" data-name="Group 3491" transform="translate(0 3.975)">
            <path id="Path_820" data-name="Path 820" d="M255.678,191.861c0,.053-9.922.1-22.159.1s-22.161-.043-22.161-.1,9.92-.1,22.161-.1S255.678,191.808,255.678,191.861Z" transform="translate(-211.358 -191.765)" fill="#f5f5f5"/>
          </g>
          <g id="Group_3492" data-name="Group 3492">
            <path id="Path_821" data-name="Path 821" d="M255.678,181.112c0,.053-9.922.1-22.159.1s-22.161-.043-22.161-.1,9.92-.1,22.161-.1S255.678,181.058,255.678,181.112Z" transform="translate(-211.358 -181.015)" fill="#f5f5f5"/>
          </g>
          <g id="Group_3493" data-name="Group 3493" transform="translate(0 7.906)">
            <path id="Path_822" data-name="Path 822" d="M255.678,202.492c0,.053-9.922.1-22.159.1s-22.161-.043-22.161-.1,9.92-.1,22.161-.1S255.678,202.439,255.678,202.492Z" transform="translate(-211.358 -202.396)" fill="#f5f5f5"/>
          </g>
          <g id="Group_3494" data-name="Group 3494" transform="translate(0 11.978)">
            <path id="Path_823" data-name="Path 823" d="M240.388,213.5c0,.053-6.5.1-14.514.1s-14.516-.043-14.516-.1,6.5-.1,14.516-.1S240.388,213.451,240.388,213.5Z" transform="translate(-211.358 -213.408)" fill="#f5f5f5"/>
          </g>
        </g>
      </g>
      <g id="Group_3502" data-name="Group 3502" transform="translate(66.485 126.387)">
        <path id="Path_824" data-name="Path 824" d="M175.232,279.816H91.183A2.281,2.281,0,0,0,88.9,282.1v27.358a2.281,2.281,0,0,0,2.281,2.281h61.043l5.557,6.037s.583-3.393,1.074-6.037h16.376a2.281,2.281,0,0,0,2.281-2.281V282.1A2.281,2.281,0,0,0,175.232,279.816Z" transform="translate(-88.902 -279.816)" fill="#455a64"/>
        <g id="Group_3501" data-name="Group 3501" transform="translate(38.713 10.037)">
          <g id="Group_3497" data-name="Group 3497" transform="translate(0 3.975)">
            <path id="Path_825" data-name="Path 825" d="M237.914,317.8c0,.053-9.922.1-22.159.1s-22.161-.043-22.161-.1,9.92-.1,22.161-.1S237.914,317.751,237.914,317.8Z" transform="translate(-193.595 -317.708)" fill="#f5f5f5"/>
          </g>
          <g id="Group_3498" data-name="Group 3498">
            <path id="Path_826" data-name="Path 826" d="M237.914,307.055c0,.053-9.922.1-22.159.1s-22.161-.043-22.161-.1,9.92-.1,22.161-.1S237.914,307,237.914,307.055Z" transform="translate(-193.595 -306.958)" fill="#f5f5f5"/>
          </g>
          <g id="Group_3499" data-name="Group 3499" transform="translate(0 7.906)">
            <path id="Path_827" data-name="Path 827" d="M237.914,328.435c0,.053-9.922.1-22.159.1s-22.161-.043-22.161-.1,9.92-.1,22.161-.1S237.914,328.382,237.914,328.435Z" transform="translate(-193.595 -328.339)" fill="#f5f5f5"/>
          </g>
          <g id="Group_3500" data-name="Group 3500" transform="translate(0 11.978)">
            <path id="Path_828" data-name="Path 828" d="M222.625,339.447c0,.053-6.5.1-14.514.1s-14.516-.043-14.516-.1,6.5-.1,14.516-.1S222.625,339.394,222.625,339.447Z" transform="translate(-193.595 -339.351)" fill="#f5f5f5"/>
          </g>
        </g>
      </g>
      <g id="Group_3558" data-name="Group 3558" transform="translate(157.552 57.424)">
        <g id="Group_3546" data-name="Group 3546" transform="translate(0 0)">
          <path id="Path_829" data-name="Path 829" d="M364.414,104.824a3.343,3.343,0,0,0-1.118-2.156,2.212,2.212,0,0,1-.617-2.355c.226-.84.759-.777.969-1.271a3.732,3.732,0,0,0,.122-1.178,2.455,2.455,0,0,1,2.927-2.086,3.4,3.4,0,0,1,6.272-.653,2.616,2.616,0,0,1,3.814,2.123,1.9,1.9,0,0,1,2.476.374,2.346,2.346,0,0,1,.178,2.585,3.077,3.077,0,0,1-2.222,1.464,4.517,4.517,0,0,1-2.668-.485,8.639,8.639,0,0,1-2.189-1.654" transform="translate(-352.442 -93.32)" fill="#263238"/>
          <ellipse id="Ellipse_99" data-name="Ellipse 99" cx="16.008" cy="15.633" rx="16.008" ry="15.633" transform="translate(2.011 22.732)" fill="#e0e0e0"/>
          <g id="Group_3541" data-name="Group 3541" transform="translate(0 3.815)">
            <g id="Group_3535" data-name="Group 3535" transform="translate(2.454)">
              <path id="Path_830" data-name="Path 830" d="M413.527,189.36l-1.772-4.543-6.35,3.99,5.658,8.725A14.972,14.972,0,0,0,413.527,189.36Z" transform="translate(-381.89 -154.798)" fill="#eb996e"/>
              <g id="Group_3526" data-name="Group 3526" transform="translate(7.82)">
                <g id="Group_3525" data-name="Group 3525">
                  <g id="Group_3524" data-name="Group 3524" transform="translate(0 0.637)">
                    <g id="Group_3521" data-name="Group 3521">
                      <g id="Group_3516" data-name="Group 3516" transform="translate(2.015)">
                        <g id="Group_3515" data-name="Group 3515">
                          <g id="Group_3503" data-name="Group 3503">
                            <path id="Path_831" data-name="Path 831" d="M372.68,129.447h0a4.26,4.26,0,0,0,4.278-4.028c.094-1.881.172-3.693.172-3.693s3.493-.253,3.816-3.668.366-11.313.366-11.313h0a12.119,12.119,0,0,0-12.168.528l-.332.213-.4,17.673A4.26,4.26,0,0,0,372.68,129.447Z" transform="translate(-368.407 -105.359)" fill="#ffbe9d"/>
                          </g>
                          <g id="Group_3507" data-name="Group 3507" transform="translate(5.487 6.277)">
                            <g id="Group_3504" data-name="Group 3504" transform="translate(0.128 0.338)">
                              <path id="Path_832" data-name="Path 832" d="M384.256,123.272a.5.5,0,0,1,.319.63.5.5,0,0,1-.635.316.5.5,0,0,1-.319-.63A.5.5,0,0,1,384.256,123.272Z" transform="translate(-383.595 -123.246)" fill="#263238"/>
                            </g>
                            <g id="Group_3506" data-name="Group 3506">
                              <g id="Group_3505" data-name="Group 3505">
                                <path id="Path_833" data-name="Path 833" d="M384.994,122.874c-.058.056-.381-.223-.857-.253s-.836.192-.884.129c-.024-.028.036-.132.194-.237a1.183,1.183,0,0,1,1.39.1C384.977,122.738,385.022,122.849,384.994,122.874Z" transform="translate(-383.247 -122.333)" fill="#263238"/>
                              </g>
                            </g>
                          </g>
                          <g id="Group_3511" data-name="Group 3511" transform="translate(10.765 6.287)">
                            <g id="Group_3508" data-name="Group 3508" transform="translate(0.065 0.327)">
                              <path id="Path_834" data-name="Path 834" d="M398.355,123.272a.5.5,0,0,1,.319.63.5.5,0,0,1-.635.316.5.5,0,0,1-.319-.63A.5.5,0,0,1,398.355,123.272Z" transform="translate(-397.694 -123.246)" fill="#263238"/>
                            </g>
                            <g id="Group_3510" data-name="Group 3510">
                              <g id="Group_3509" data-name="Group 3509">
                                <path id="Path_835" data-name="Path 835" d="M399.265,122.9c-.058.056-.381-.223-.857-.253s-.836.193-.885.129c-.024-.028.036-.132.193-.237a1.184,1.184,0,0,1,1.39.1C399.248,122.766,399.293,122.878,399.265,122.9Z" transform="translate(-397.519 -122.362)" fill="#263238"/>
                              </g>
                            </g>
                          </g>
                          <g id="Group_3513" data-name="Group 3513" transform="translate(8.923 6.405)">
                            <g id="Group_3512" data-name="Group 3512">
                              <path id="Path_836" data-name="Path 836" d="M392.539,126.8a2.319,2.319,0,0,1,.781-.1c.125,0,.225-.023.24-.089a.665.665,0,0,0-.06-.36l-.3-.987a13.069,13.069,0,0,1-.608-2.581,13.06,13.06,0,0,1,.868,2.506l.277.993a.783.783,0,0,1,.026.517.326.326,0,0,1-.23.179.8.8,0,0,1-.214.01A2.329,2.329,0,0,1,392.539,126.8Z" transform="translate(-392.539 -122.679)" fill="#263238"/>
                            </g>
                          </g>
                          <g id="Group_3514" data-name="Group 3514" transform="translate(4.339 14.689)">
                            <path id="Path_837" data-name="Path 837" d="M384.534,146.712a8.1,8.1,0,0,1-4.393-1.629s.862,2.546,4.329,2.516Z" transform="translate(-380.141 -145.083)" fill="#eb996e"/>
                          </g>
                        </g>
                      </g>
                      <g id="Group_3520" data-name="Group 3520" transform="translate(0 6.615)">
                        <g id="Group_3517" data-name="Group 3517">
                          <path id="Path_838" data-name="Path 838" d="M365.293,123.777a.518.518,0,0,0-.488-.528c-.644-.03-1.7.2-1.836,1.963a1.656,1.656,0,0,0,2.275,1.863C365.252,127.018,365.281,124.755,365.293,123.777Z" transform="translate(-362.959 -123.246)" fill="#ffbe9d"/>
                        </g>
                        <g id="Group_3519" data-name="Group 3519" transform="translate(0.679 0.801)">
                          <g id="Group_3518" data-name="Group 3518">
                            <path id="Path_839" data-name="Path 839" d="M365.862,127.44c-.01-.009-.047.027-.124.055a.447.447,0,0,1-.331-.018,1.083,1.083,0,0,1-.432-1.011,1.439,1.439,0,0,1,.171-.618.51.51,0,0,1,.358-.311.226.226,0,0,1,.252.139c.029.073.009.122.022.127s.058-.038.045-.143a.278.278,0,0,0-.088-.165.336.336,0,0,0-.24-.082.622.622,0,0,0-.491.356,1.48,1.48,0,0,0-.206.689,1.138,1.138,0,0,0,.562,1.134.478.478,0,0,0,.409-.036C365.852,127.5,365.87,127.445,365.862,127.44Z" transform="translate(-364.796 -125.413)" fill="#eb996e"/>
                          </g>
                        </g>
                      </g>
                    </g>
                    <g id="Group_3522" data-name="Group 3522" transform="translate(6.974 4.793)">
                      <path id="Path_840" data-name="Path 840" d="M381.842,119.005c.125.161.563.086,1.131.062.567-.045,1.011-.024,1.114-.2s-.431-.6-1.162-.542C382.192,118.356,381.7,118.839,381.842,119.005Z" transform="translate(-381.818 -118.32)" fill="#263238"/>
                    </g>
                    <g id="Group_3523" data-name="Group 3523" transform="translate(12.528 4.771)">
                      <path id="Path_841" data-name="Path 841" d="M396.845,118.8c.068.22.485.285.947.283s.877-.086.94-.307-.355-.524-.95-.515S396.774,118.587,396.845,118.8Z" transform="translate(-396.837 -118.26)" fill="#263238"/>
                    </g>
                  </g>
                  <path id="Path_842" data-name="Path 842" d="M381.754,106.742a5.677,5.677,0,0,1-4.769-.343c-1.769-.883-3.832-1.315-4.287-.959s-.551,2.179-2.3,2.712c0,0,.12,3.479-1.267,3.355s-.52-5.513-.52-5.513L372,104.337l3.7-.7,3.489.492,2.7.739Z" transform="translate(-366.35 -103.637)" fill="#263238"/>
                </g>
              </g>
              <g id="Group_3534" data-name="Group 3534" transform="translate(0 17.326)">
                <g id="Group_3530" data-name="Group 3530" transform="translate(0 2.575)">
                  <path id="Path_843" data-name="Path 843" d="M341.812,160.793c3.626-3.729,10.009-3.322,10.009-3.322l5.29,3.787,3-3.493a19.453,19.453,0,0,1,6.108,1.89l.2.063,0,.042c2.321,1.26,5.607,4.283,8.738,7.216l-3.746,3.476-4.146,3.681a.111.111,0,0,1,.007.074c-.043.223.576,5.286,1.211,9.134a15.613,15.613,0,0,1-13.934,4.21,41.492,41.492,0,0,1-4.088-1.123,5.688,5.688,0,0,1-4.212-5.012h0c-.282-3.225-.5-7.218-.5-7.218" transform="translate(-341.812 -157.458)" fill="#455a64"/>
                  <g id="Group_3527" data-name="Group 3527" transform="translate(21.616 0.958)">
                    <path id="Path_844" data-name="Path 844" d="M400.269,160.048a4.033,4.033,0,0,1,.228.6c.136.387.32.95.538,1.65.437,1.4.993,3.347,1.519,5.521s.919,4.163,1.169,5.607c.125.722.218,1.308.274,1.714a4.082,4.082,0,0,1,.069.633,3.959,3.959,0,0,1-.143-.621l-.334-1.7c-.284-1.436-.7-3.415-1.222-5.587s-1.059-4.12-1.462-5.528l-.479-1.666A4.031,4.031,0,0,1,400.269,160.048Z" transform="translate(-400.267 -160.048)" fill="#263238"/>
                  </g>
                  <g id="Group_3528" data-name="Group 3528" transform="translate(25.023 8.433)">
                    <path id="Path_845" data-name="Path 845" d="M409.483,186.119c-.033-.041,1.548-1.386,3.533-3s3.621-2.895,3.655-2.853-1.548,1.385-3.533,3S409.517,186.16,409.483,186.119Z" transform="translate(-409.483 -180.262)" fill="#263238"/>
                  </g>
                  <path id="Path_846" data-name="Path 846" d="M349.225,180.32,345.979,191l1.208.628,1.191-3.02S349.6,182.262,349.225,180.32Z" transform="translate(-344.438 -171.866)" opacity="0.2"/>
                  <g id="Group_3529" data-name="Group 3529" transform="translate(16.65 0.252)" opacity="0.2">
                    <path id="Path_847" data-name="Path 847" d="M391.454,158.852c1.749.922-2.635,3.142-4.616,3.082l1.438-3.795A19.965,19.965,0,0,1,391.454,158.852Z" transform="translate(-386.838 -158.139)"/>
                  </g>
                </g>
                <path id="Path_848" data-name="Path 848" d="M367.468,153.32v-2.827s5.523,1.421,5.723,4.725c0,0,.7-3.652,3.548-3.828l.4,5.138-3.311,2.881h-3.356l-2.658-2.293-.347-3.568" transform="translate(-357.981 -150.493)" fill="#455a64"/>
                <g id="Group_3531" data-name="Group 3531" transform="translate(15.175 5.225)">
                  <path id="Path_849" data-name="Path 849" d="M384.128,179.972a3.628,3.628,0,0,1-.01-.608c.008-.391.015-.956.017-1.654,0-1.4-.039-3.325-.214-5.448s-.453-4.033-.688-5.41l-.29-1.628a3.667,3.667,0,0,1-.091-.6,3.685,3.685,0,0,1,.164.586c.1.379.216.933.351,1.62a50.73,50.73,0,0,1,.9,10.884c-.019.7-.047,1.265-.078,1.656A3.761,3.761,0,0,1,384.128,179.972Z" transform="translate(-382.85 -164.623)" fill="#263238"/>
                </g>
                <g id="Group_3532" data-name="Group 3532" transform="translate(9.284 2.293)">
                  <path id="Path_850" data-name="Path 850" d="M372.591,158.176a.668.668,0,0,0-.328.03c-.211.068-.4.331-.555.706a15.994,15.994,0,0,0-1.05,3.055l-.029.126-.112-.067c-.33-.2-.669-.415-1.009-.646a20.223,20.223,0,0,1-1.79-1.36,2.262,2.262,0,0,1-.61-.8,2.518,2.518,0,0,1-.186-.853,4.941,4.941,0,0,1,.123-1.237,1.828,1.828,0,0,1,.121-.437,2.354,2.354,0,0,1-.047.45,5.842,5.842,0,0,0-.061,1.215,2.446,2.446,0,0,0,.2.8,2.124,2.124,0,0,0,.581.73c.522.436,1.129.89,1.782,1.335.338.229.673.444,1,.644l-.141.059a13.976,13.976,0,0,1,1.124-3.065,2.321,2.321,0,0,1,.291-.476.739.739,0,0,1,.352-.239C372.476,158.079,372.6,158.173,372.591,158.176Z" transform="translate(-366.919 -156.695)" fill="#263238"/>
                </g>
                <g id="Group_3533" data-name="Group 3533" transform="translate(15.633 0.898)">
                  <path id="Path_851" data-name="Path 851" d="M387.213,152.921a2.025,2.025,0,0,1,.052.442l.088,1.2c.041.507.1,1.109.206,1.773a2.964,2.964,0,0,1,.067,1.085,1.866,1.866,0,0,1-.727.928,8.174,8.174,0,0,0-1.215.923l-.147.165-.014-.22a6.614,6.614,0,0,0-.816-2.754c-.351-.63-.64-.954-.618-.972a1.045,1.045,0,0,1,.218.218,5.435,5.435,0,0,1,.5.7,6.308,6.308,0,0,1,.9,2.8l-.162-.055a7.758,7.758,0,0,1,1.238-.954,1.711,1.711,0,0,0,.66-.821,2.923,2.923,0,0,0-.059-1.012c-.1-.67-.143-1.279-.167-1.79s-.028-.924-.027-1.21A1.929,1.929,0,0,1,387.213,152.921Z" transform="translate(-384.089 -152.921)" fill="#263238"/>
                </g>
              </g>
            </g>
            <g id="Group_3540" data-name="Group 3540" transform="translate(0 18.934)">
              <g id="Group_3537" data-name="Group 3537" transform="translate(1.978)">
                <path id="Path_852" data-name="Path 852" d="M426.368,154.84c-.224.264-8.354,11.135-8.354,11.135l1.144.649,8.343-10.733Z" transform="translate(-389.36 -154.84)" fill="#263238"/>
                <path id="Path_853" data-name="Path 853" d="M344.872,172.173s8.553,12.311,9.068,12.553c1.015.477,12.716-9.635,13.832-10.6.154-.205.471-.639,1.095-1.5,0,0,.923-4.224,1.908-3.9s-.54,2.147.1,3.751,3.58-2.223,3.7-2.567l.758-.99a13,13,0,0,1,.741,3.194c-.173,3.014-3.024,6.6-3.024,6.6s-12.805,15.863-21.577,16.355c-2.526.142-7.016-7.027-10.017-12.4a7.355,7.355,0,0,1,2.1-9.526Z" transform="translate(-340.524 -163.578)" fill="#ffbe9d"/>
                <g id="Group_3536" data-name="Group 3536" transform="translate(34.108 6.841)">
                  <path id="Path_854" data-name="Path 854" d="M432.764,175.568c-.028-.018.246-.5.548-1.115s.523-1.124.554-1.113a6.95,6.95,0,0,1-1.1,2.228Z" transform="translate(-432.761 -173.339)" fill="#eb996e"/>
                </g>
              </g>
              <g id="Group_3539" data-name="Group 3539" transform="translate(0 2.587)">
                <path id="Path_855" data-name="Path 855" d="M340.054,161.835s-9.18,3.264-2.355,18.7l10.6-6.4-1.508-3.61Z" transform="translate(-335.175 -161.835)" fill="#455a64"/>
                <g id="Group_3538" data-name="Group 3538" transform="translate(2.524 0.253)">
                  <path id="Path_856" data-name="Path 856" d="M343.651,162.534a3.187,3.187,0,0,1,1.105.093,4.5,4.5,0,0,1,1.2.508,6.508,6.508,0,0,1,1.337,1.1,16.031,16.031,0,0,1,2.493,3.726c.777,1.5,1.5,3.21,2.245,5.007l.65,1.57.033.08-.075.041c-3.066,1.671-5.736,3.237-7.623,4.408-.944.584-1.7,1.065-2.212,1.4l-.595.382a1.282,1.282,0,0,1-.213.124,1.26,1.26,0,0,1,.193-.153c.131-.095.322-.236.576-.41.5-.352,1.246-.85,2.183-1.45,1.871-1.2,4.533-2.789,7.6-4.467l-.042.121-.651-1.57c-.743-1.8-1.461-3.5-2.225-5a16.321,16.321,0,0,0-2.435-3.713,6.554,6.554,0,0,0-1.295-1.1,4.585,4.585,0,0,0-1.166-.527A6.622,6.622,0,0,0,343.651,162.534Z" transform="translate(-342 -162.52)" fill="#263238"/>
                </g>
              </g>
            </g>
          </g>
          <g id="Group_3542" data-name="Group 3542" transform="translate(16.505 2.715)">
            <path id="Path_857" data-name="Path 857" d="M387.227,100.661a.549.549,0,0,1,.045.161,2.091,2.091,0,0,1,.027.479,2.451,2.451,0,0,1-3.171,2.225,2.182,2.182,0,0,1-1.265-.917,1.29,1.29,0,0,1-.189-.835,1.08,1.08,0,0,1,.454-.763.938.938,0,0,1,.888-.057,1.128,1.128,0,0,1,.607.61,1.619,1.619,0,0,1-.243,1.537,1.928,1.928,0,0,1-2.425.527,4.141,4.141,0,0,0-.913-.351,1.148,1.148,0,0,0-.707.074,3.832,3.832,0,0,0-.526.346s.032-.048.108-.127a.918.918,0,0,1,.151-.136,1.134,1.134,0,0,1,.235-.151,1.2,1.2,0,0,1,.757-.113,4.055,4.055,0,0,1,.95.332,2.688,2.688,0,0,0,.534.176,1.687,1.687,0,0,0,.6-.011,1.747,1.747,0,0,0,1.1-.673,1.446,1.446,0,0,0,.212-1.359.872.872,0,0,0-1.215-.464.892.892,0,0,0-.37.628,1.105,1.105,0,0,0,.162.713,2.015,2.015,0,0,0,1.153.843,2.366,2.366,0,0,0,2.324-.549,2.513,2.513,0,0,0,.722-1.511A5.045,5.045,0,0,0,387.227,100.661Z" transform="translate(-379.809 -100.661)" fill="#455a64"/>
          </g>
          <g id="Group_3543" data-name="Group 3543" transform="translate(20.111 15.748)">
            <path id="Path_858" data-name="Path 858" d="M391.375,136.818c0,.023-.114.072-.317.081a1.646,1.646,0,0,1-1.366-.688c-.114-.169-.145-.292-.123-.3a2.534,2.534,0,0,0,1.806.91Z" transform="translate(-389.562 -135.906)" fill="#263238"/>
          </g>
          <g id="Group_3544" data-name="Group 3544" transform="translate(11.019 14.397)">
            <path id="Path_859" data-name="Path 859" d="M366.181,132.881c.017-.016.121.163-.013.417a.617.617,0,0,1-.377.3.64.64,0,0,1-.574-.15.688.688,0,0,1-.243-.537.739.739,0,0,1,.169-.443c.178-.209.358-.228.361-.207s-.131.093-.25.287a.575.575,0,0,0,.09.755.487.487,0,0,0,.407.123.518.518,0,0,0,.3-.2C366.187,133.045,366.151,132.885,366.181,132.881Z" transform="translate(-364.973 -132.253)" fill="#263238"/>
          </g>
          <g id="Group_3545" data-name="Group 3545" transform="translate(21.957 3.96)">
            <path id="Path_860" data-name="Path 860" d="M397.128,104.03a1.219,1.219,0,0,1,.178.679,2.258,2.258,0,0,1-2.056,2.371,1.219,1.219,0,0,1-.7-.08c0-.033.269.016.679-.055a2.283,2.283,0,0,0,1.938-2.234C397.182,104.294,397.1,104.038,397.128,104.03Z" transform="translate(-394.553 -104.029)" fill="#455a64"/>
          </g>
        </g>
        <g id="Group_3547" data-name="Group 3547" transform="translate(1.05 34.898)">
          <path id="Path_861" data-name="Path 861" d="M348.992,187.7c.024.048-2.415,1.3-5.445,2.8s-5.508,2.675-5.532,2.627,2.414-1.3,5.446-2.8S348.968,187.649,348.992,187.7Z" transform="translate(-338.015 -187.695)" fill="#e0e0e0"/>
        </g>
        <g id="Group_3548" data-name="Group 3548" transform="translate(0.018 30.704)">
          <path id="Path_862" data-name="Path 862" d="M345.011,176.355c.025.047-2.145,1.261-4.847,2.711s-4.914,2.588-4.939,2.541,2.145-1.261,4.848-2.711S344.986,176.308,345.011,176.355Z" transform="translate(-335.224 -176.353)" fill="#e0e0e0"/>
        </g>
        <g id="Group_3549" data-name="Group 3549" transform="translate(0.165 27.312)">
          <path id="Path_863" data-name="Path 863" d="M343.114,167.183a8.817,8.817,0,0,1-1.086.642l-2.655,1.481-2.641,1.506a8.7,8.7,0,0,1-1.112.6,7.69,7.69,0,0,1,1.041-.713c.659-.417,1.581-.973,2.617-1.557s1.989-1.086,2.686-1.434A7.676,7.676,0,0,1,343.114,167.183Z" transform="translate(-335.62 -167.181)" fill="#e0e0e0"/>
        </g>
        <g id="Group_3550" data-name="Group 3550" transform="translate(11.944 23.434)">
          <path id="Path_864" data-name="Path 864" d="M371.31,159.771a1.734,1.734,0,0,1-.714-.192,5.473,5.473,0,0,1-1.5-.973,10.253,10.253,0,0,1-1.206-1.306,2.68,2.68,0,0,1-.417-.606,2.929,2.929,0,0,1,.521.518,17.425,17.425,0,0,0,1.23,1.25,6.852,6.852,0,0,0,1.425.994C371.051,159.658,371.318,159.741,371.31,159.771Z" transform="translate(-367.475 -156.692)" fill="#e0e0e0"/>
        </g>
        <g id="Group_3551" data-name="Group 3551" transform="translate(19.181 24.508)">
          <path id="Path_865" data-name="Path 865" d="M389.039,159.6a2.574,2.574,0,0,1-1.991,1.676,12.9,12.9,0,0,0,1.1-.715A13.11,13.11,0,0,0,389.039,159.6Z" transform="translate(-387.047 -159.598)" fill="#e0e0e0"/>
        </g>
        <g id="Group_3552" data-name="Group 3552" transform="translate(10.258 30.069)">
          <path id="Path_866" data-name="Path 866" d="M383.446,174.641a.888.888,0,0,1-.206.038l-.595.073c-.517.057-1.267.129-2.194.2-1.855.148-4.421.292-7.257.4s-5.408.138-7.268.122c-.93-.006-1.683-.024-2.2-.045l-.6-.031a.842.842,0,0,1-.208-.024.864.864,0,0,1,.209-.015l.6-.006,2.2-.017c1.859-.02,4.426-.079,7.262-.179s5.4-.226,7.255-.339l2.2-.14.6-.037A.856.856,0,0,1,383.446,174.641Z" transform="translate(-362.916 -174.636)" fill="#e0e0e0"/>
        </g>
        <g id="Group_3553" data-name="Group 3553" transform="translate(12.265 34.453)">
          <path id="Path_867" data-name="Path 867" d="M383.946,186.5a3.76,3.76,0,0,1-.608.1c-.392.049-.962.111-1.666.174-1.409.13-3.358.264-5.515.352s-4.112.11-5.526.094c-.707-.006-1.279-.022-1.675-.039a3.729,3.729,0,0,1-.613-.046,3.728,3.728,0,0,1,.614-.028l1.673-.023c1.413-.019,3.364-.064,5.519-.151s4.1-.2,5.512-.295l1.67-.113A3.839,3.839,0,0,1,383.946,186.5Z" transform="translate(-368.343 -186.491)" fill="#e0e0e0"/>
        </g>
        <g id="Group_3554" data-name="Group 3554" transform="translate(12.817 39.855)">
          <path id="Path_868" data-name="Path 868" d="M378.258,201.113a7.4,7.4,0,0,1-1.226.173c-.76.078-1.812.163-2.976.221s-2.221.078-2.984.076a7.358,7.358,0,0,1-1.237-.05,8.434,8.434,0,0,1,1.234-.086l2.977-.132,2.975-.164A8.4,8.4,0,0,1,378.258,201.113Z" transform="translate(-369.835 -201.101)" fill="#e0e0e0"/>
        </g>
        <g id="Group_3555" data-name="Group 3555" transform="translate(7.701 26.945)">
          <path id="Path_869" data-name="Path 869" d="M361.065,166.277c0,.055-1.136.067-2.531.126s-2.528.137-2.534.082a18.9,18.9,0,0,1,5.065-.208Z" transform="translate(-356 -166.189)" fill="#e0e0e0"/>
        </g>
        <g id="Group_3556" data-name="Group 3556" transform="translate(21.794 26.724)">
          <path id="Path_870" data-name="Path 870" d="M400.685,165.7a56.084,56.084,0,0,1-6.571-.025,56.083,56.083,0,0,1,6.571.025Z" transform="translate(-394.114 -165.591)" fill="#e0e0e0"/>
        </g>
        <g id="Group_3557" data-name="Group 3557" transform="translate(19.417 49.333)">
          <path id="Path_871" data-name="Path 871" d="M397.2,226.733a1.5,1.5,0,0,1-.337.193c-.221.115-.55.266-.962.438a21.024,21.024,0,0,1-6.774,1.561c-.446.025-.807.033-1.056.027a1.516,1.516,0,0,1-.388-.026c0-.031.55-.052,1.434-.136a25.939,25.939,0,0,0,6.734-1.552C396.684,226.927,397.188,226.7,397.2,226.733Z" transform="translate(-387.685 -226.731)" fill="#e0e0e0"/>
        </g>
      </g>
      <g id="Group_3614" data-name="Group 3614" transform="translate(64.027 103.649)">
        <ellipse id="Ellipse_100" data-name="Ellipse 100" cx="16.008" cy="15.27" rx="16.008" ry="15.27" transform="translate(6.564 22.9)" fill="#e0e0e0"/>
        <g id="Group_3591" data-name="Group 3591" transform="translate(12.026)">
          <path id="Path_872" data-name="Path 872" d="M122.06,221.982c-2.54.132-3.537,2.78-3.84,3.371a5.121,5.121,0,0,0-.407,1.937,4.213,4.213,0,0,1-.487,1.913c-.559.892-1.734,1.353-2.053,2.356-.362,1.134.567,2.347.319,3.512-.133.625-.589,1.14-.75,1.758a2.588,2.588,0,0,0,.343,1.92,5.03,5.03,0,0,0,4.22,2.211,14.852,14.852,0,0,0,4.861-.927" transform="translate(-114.776 -220.63)" fill="#263238"/>
          <path id="Path_873" data-name="Path 873" d="M160.789,230.88a1.582,1.582,0,0,0,.376,1.636,10.2,10.2,0,0,0,1.374,1.12,2.244,2.244,0,0,1,.938,1.451c.049.542-.223,1.079-.149,1.618.19,1.384,2.4,1.8,2.515,3.192.078.927-.873,1.779-.609,2.671a4.236,4.236,0,0,0,.55.912,2.715,2.715,0,0,1-.706,3.281,5.4,5.4,0,0,1-3.383,1.146,3.171,3.171,0,0,1-2.78-.947,3.811,3.811,0,0,1-.327-2.714,94.981,94.981,0,0,0,.338-13.075" transform="translate(-142.33 -226.238)" fill="#263238"/>
          <g id="Group_3582" data-name="Group 3582" transform="translate(4.247 1.041)">
            <g id="Group_3581" data-name="Group 3581">
              <g id="Group_3580" data-name="Group 3580">
                <g id="Group_3574" data-name="Group 3574" transform="translate(0.042 2.223)">
                  <g id="Group_3559" data-name="Group 3559">
                    <path id="Path_874" data-name="Path 874" d="M130.037,248.586c.019-2.276,0-4.674,0-4.674s-2.927-.521-3.491-4.354c-.537-3.656.374-11.519.374-11.519h0c4.241-1.673,9.015-1.026,11.986,2.388h0l-.462,18.487a3.966,3.966,0,0,1-4.239,3.734h0A4.19,4.19,0,0,1,130.037,248.586Z" transform="translate(-126.375 -227.155)" fill="#ffbe9d"/>
                  </g>
                  <g id="Group_3563" data-name="Group 3563" transform="translate(0.543 6.038)">
                    <g id="Group_3560" data-name="Group 3560" transform="translate(0.797 0.446)">
                      <path id="Path_875" data-name="Path 875" d="M130,245.128a.491.491,0,0,0,.467.5.469.469,0,0,0,.511-.436.491.491,0,0,0-.467-.5A.469.469,0,0,0,130,245.128Z" transform="translate(-129.999 -244.69)" fill="#263238"/>
                    </g>
                    <g id="Group_3562" data-name="Group 3562">
                      <g id="Group_3561" data-name="Group 3561">
                        <path id="Path_876" data-name="Path 876" d="M127.852,243.988c.06.065.435-.206.963-.2.994.144.975.3.97.212.028-.028-.032-.145-.2-.27a1.347,1.347,0,0,0-.775-.249,1.29,1.29,0,0,0-.767.238C127.879,243.844,127.823,243.959,127.852,243.988Z" transform="translate(-127.845 -243.483)" fill="#263238"/>
                      </g>
                    </g>
                  </g>
                  <g id="Group_3567" data-name="Group 3567" transform="translate(6.051 6.22)">
                    <g id="Group_3564" data-name="Group 3564" transform="translate(0.693 0.42)">
                      <path id="Path_877" data-name="Path 877" d="M144.614,245.549a.492.492,0,0,0,.468.5.47.47,0,0,0,.511-.437.491.491,0,0,0-.467-.5A.47.47,0,0,0,144.614,245.549Z" transform="translate(-144.614 -245.111)" fill="#263238"/>
                    </g>
                    <g id="Group_3566" data-name="Group 3566">
                      <g id="Group_3565" data-name="Group 3565">
                        <path id="Path_878" data-name="Path 878" d="M142.746,244.481c.06.065.436-.206.963-.2s.912.276.97.212c.028-.028-.031-.145-.2-.269a1.349,1.349,0,0,0-.775-.249,1.3,1.3,0,0,0-.768.238C142.774,244.337,142.717,244.452,142.746,244.481Z" transform="translate(-142.739 -243.976)" fill="#263238"/>
                      </g>
                    </g>
                  </g>
                  <g id="Group_3569" data-name="Group 3569" transform="translate(2.756 6.116)">
                    <g id="Group_3568" data-name="Group 3568">
                      <path id="Path_879" data-name="Path 879" d="M135.169,248.091a3.507,3.507,0,0,0-.856-.165c-.135-.016-.262-.044-.284-.136a.685.685,0,0,1,.095-.4l.41-1.022a17.657,17.657,0,0,0,.927-2.675,17.675,17.675,0,0,0-1.14,2.594l-.394,1.029a.781.781,0,0,0-.076.528.339.339,0,0,0,.219.2.934.934,0,0,0,.229.034A3.446,3.446,0,0,0,135.169,248.091Z" transform="translate(-133.828 -243.694)" fill="#263238"/>
                    </g>
                  </g>
                  <g id="Group_3570" data-name="Group 3570" transform="translate(3.66 15.45)">
                    <path id="Path_880" data-name="Path 880" d="M136.273,270.244a9.732,9.732,0,0,0,5.14-1.308s-1.274,2.614-5.1,2.212Z" transform="translate(-136.273 -268.936)" fill="#eb996e"/>
                  </g>
                  <g id="Group_3571" data-name="Group 3571" transform="translate(4.252 11.438)">
                    <path id="Path_881" data-name="Path 881" d="M137.926,258.437a.952.952,0,0,1,.857-.344.868.868,0,0,1,.6.329.55.55,0,0,1,.035.63.639.639,0,0,1-.694.167,2,2,0,0,1-.67-.411.579.579,0,0,1-.149-.158.177.177,0,0,1,0-.2" transform="translate(-137.873 -258.086)" fill="#eb996e"/>
                  </g>
                  <g id="Group_3573" data-name="Group 3573" transform="translate(3.947 10.896)">
                    <g id="Group_3572" data-name="Group 3572">
                      <path id="Path_882" data-name="Path 882" d="M138.75,256.622c-.086-.006-.094.567-.589.968s-1.1.331-1.11.411c-.008.036.135.113.393.123a1.426,1.426,0,0,0,.926-.311,1.242,1.242,0,0,0,.457-.812C138.851,256.762,138.789,256.619,138.75,256.622Z" transform="translate(-137.05 -256.622)" fill="#263238"/>
                    </g>
                  </g>
                </g>
                <g id="Group_3575" data-name="Group 3575">
                  <path id="Path_883" data-name="Path 883" d="M137.171,223.907c-1.4,2-5.107,4.05-7.761,4.526.31-.408,1.94-1.413,2.25-1.821-1.2.9-2.925,2.1-4.521,2.182a.969.969,0,0,1-.548-.085.74.74,0,0,1-.279-.6,15.949,15.949,0,0,1,.111-3.467,3.837,3.837,0,0,1,1.381-2.474,6.624,6.624,0,0,1,3.865-1.018,8.745,8.745,0,0,1,3.406.458,3.2,3.2,0,0,1,2.116,2.234" transform="translate(-126.261 -221.142)" fill="#263238"/>
                </g>
                <g id="Group_3576" data-name="Group 3576" transform="translate(7.656 0.443)">
                  <path id="Path_884" data-name="Path 884" d="M154.233,233.607a21.66,21.66,0,0,0,.382-2.558c.113-1.975-.457-9.263-7.265-8.676l-.275,2.073s-1.052,7.1,3.352,7.15a7.918,7.918,0,0,0,2.238,4.172s1.155-.035,1.569-2.161" transform="translate(-146.965 -222.339)" fill="#263238"/>
                </g>
                <g id="Group_3577" data-name="Group 3577" transform="translate(10.929 9.656)">
                  <path id="Path_885" data-name="Path 885" d="M156,247.3a2.283,2.283,0,0,1,1.231.093,1.593,1.593,0,0,1,.892.828,1.666,1.666,0,0,1,0,1.223,2.819,2.819,0,0,1-.709,1.021,1.912,1.912,0,0,1-.748.484.912.912,0,0,1-.851-.142" transform="translate(-155.816 -247.257)" fill="#ffbe9d"/>
                </g>
                <g id="Group_3579" data-name="Group 3579" transform="translate(11.308 10.229)">
                  <g id="Group_3578" data-name="Group 3578">
                    <path id="Path_886" data-name="Path 886" d="M156.848,250.758c-.047.015.128.264.5.168a.806.806,0,0,0,.467-.4,1.815,1.815,0,0,0,.212-.677,1.068,1.068,0,0,0-.165-.722.712.712,0,0,0-.534-.324c-.385-.013-.507.252-.464.261.03.031.181-.1.433-.041a.689.689,0,0,1,.417.8c-.05.42-.217.8-.442.9C157.041,250.834,156.874,250.725,156.848,250.758Z" transform="translate(-156.841 -248.805)" fill="#eb996e"/>
                  </g>
                </g>
              </g>
            </g>
          </g>
          <path id="Path_887" data-name="Path 887" d="M157.339,221.478a2.321,2.321,0,0,0,3.142-.826,1.486,1.486,0,0,0,.215-1.11,1.528,1.528,0,0,0-1.143-.991,2.336,2.336,0,0,0-2.147.515,2.05,2.05,0,0,0-.554,2.107,1.828,1.828,0,0,0,1.766,1.218" transform="translate(-141.231 -218.421)" fill="#263238"/>
          <path id="Path_888" data-name="Path 888" d="M156.2,256.445a5.392,5.392,0,0,0-1.058.913,1.822,1.822,0,0,0-.457,1.288,3.351,3.351,0,0,1,.086.776,2.592,2.592,0,0,1-.537.923,2.193,2.193,0,0,0,.346,2.57,3.557,3.557,0,0,0,2.516,1.022,2.153,2.153,0,0,0,2.444-2.425" transform="translate(-139.467 -242.349)" fill="#263238"/>
          <g id="Group_3583" data-name="Group 3583" transform="translate(13.111 4.584)">
            <path id="Path_889" data-name="Path 889" d="M154.312,230.723a2.515,2.515,0,0,1-.4.7,8.085,8.085,0,0,1-2.928,2.516,2.524,2.524,0,0,1-.75.292,11.852,11.852,0,0,0,4.079-3.506Z" transform="translate(-150.233 -230.723)" fill="#455a64"/>
          </g>
          <g id="Group_3584" data-name="Group 3584" transform="translate(14.686 4.547)">
            <path id="Path_890" data-name="Path 890" d="M157.7,230.624a3.034,3.034,0,0,1-.125.933,7.536,7.536,0,0,1-2.319,3.854,3.026,3.026,0,0,1-.766.548,9.5,9.5,0,0,0,3.21-5.335Z" transform="translate(-154.491 -230.624)" fill="#455a64"/>
          </g>
          <g id="Group_3585" data-name="Group 3585" transform="translate(3.086 7.629)">
            <path id="Path_891" data-name="Path 891" d="M123.15,238.958c.057,0,.129.637.351,1.393s.5,1.339.446,1.366a4.38,4.38,0,0,1-.8-2.759Z" transform="translate(-123.121 -238.958)" fill="#455a64"/>
          </g>
          <g id="Group_3586" data-name="Group 3586" transform="translate(17.903 8.429)">
            <path id="Path_892" data-name="Path 892" d="M164.712,253.4a1.07,1.07,0,0,0,.563.181,1.151,1.151,0,0,0,.652-.205,1.314,1.314,0,0,0,.493-.747,2.409,2.409,0,0,0,.007-1.115c-.08-.4-.236-.816-.373-1.269a3.347,3.347,0,0,1-.164-1.49,8.364,8.364,0,0,1,.608-1.468,1.922,1.922,0,0,0-1.123-2.385c-.212-.09-.431-.167-.634-.277a1.293,1.293,0,0,1-.506-.454,2.13,2.13,0,0,1-.229-1.163,3.973,3.973,0,0,0-.038-.94,1.537,1.537,0,0,0-.277-.637.916.916,0,0,0-.5-.308.337.337,0,0,1,.161.013.771.771,0,0,1,.395.247,1.563,1.563,0,0,1,.325.662,3.878,3.878,0,0,1,.069.964,2.025,2.025,0,0,0,.227,1.078,2.056,2.056,0,0,0,1.075.653,2.1,2.1,0,0,1,1.236,2.612,8.868,8.868,0,0,0-.6,1.436,3.2,3.2,0,0,0,.149,1.408c.129.446.283.87.359,1.289a2.512,2.512,0,0,1-.033,1.183,1.411,1.411,0,0,1-.565.8,1.2,1.2,0,0,1-.714.191.871.871,0,0,1-.443-.145A.4.4,0,0,1,164.712,253.4Z" transform="translate(-163.191 -241.12)" fill="#455a64"/>
          </g>
          <g id="Group_3587" data-name="Group 3587" transform="translate(16.753 14.122)">
            <path id="Path_893" data-name="Path 893" d="M160.083,262.846c.017-.011.048.119.228.2a.607.607,0,0,0,.717-.194,1.132,1.132,0,0,0-.06-1.157,4.849,4.849,0,0,1-.737-1.438,1.041,1.041,0,0,1,.206-.853c.181-.223.393-.372.532-.555a1.612,1.612,0,0,0,.257-1.181,4.581,4.581,0,0,0-.212-.839,1.1,1.1,0,0,1-.085-.313,1.028,1.028,0,0,1,.155.285,3.6,3.6,0,0,1,.277.846,1.711,1.711,0,0,1-.251,1.308c-.157.212-.372.368-.525.564a.857.857,0,0,0-.165.706,5.149,5.149,0,0,0,.7,1.387,1.256,1.256,0,0,1,.013,1.319.663.663,0,0,1-.469.257.648.648,0,0,1-.393-.075C160.078,262.992,160.076,262.841,160.083,262.846Z" transform="translate(-160.081 -256.517)" fill="#455a64"/>
          </g>
          <g id="Group_3588" data-name="Group 3588" transform="translate(1.158 10.13)">
            <path id="Path_894" data-name="Path 894" d="M119.009,255.076a1.647,1.647,0,0,1-.3-.3,3.651,3.651,0,0,1-.645-.972,1.94,1.94,0,0,1-.155-.807,1.406,1.406,0,0,1,.326-.9c.229-.266.562-.4.762-.652a1.09,1.09,0,0,0,.153-.951,4.057,4.057,0,0,0-.406-.977,3.355,3.355,0,0,1-.359-.97,1.269,1.269,0,0,1,.19-.934,3.257,3.257,0,0,1,.563-.587,1.689,1.689,0,0,0,.632-.9,1.112,1.112,0,0,0-.016-.408s.029.028.056.1a.66.66,0,0,1,.034.321,1.682,1.682,0,0,1-.613.99,3.279,3.279,0,0,0-.522.574,1.11,1.11,0,0,0-.149.818,3.287,3.287,0,0,0,.352.913,4.114,4.114,0,0,1,.426,1.021,1.271,1.271,0,0,1-.195,1.113c-.251.3-.582.423-.775.65a1.256,1.256,0,0,0-.3.785,1.848,1.848,0,0,0,.122.751,4.133,4.133,0,0,0,.576.975A1.976,1.976,0,0,1,119.009,255.076Z" transform="translate(-117.907 -245.72)" fill="#455a64"/>
          </g>
          <g id="Group_3589" data-name="Group 3589" transform="translate(15.591 1.941)">
            <path id="Path_895" data-name="Path 895" d="M159.029,225.175a3.738,3.738,0,0,0-2.089-1.58,2.211,2.211,0,0,1,2.089,1.58Z" transform="translate(-156.94 -223.576)" fill="#e8505b"/>
          </g>
          <g id="Group_3590" data-name="Group 3590" transform="translate(17.435)">
            <path id="Path_896" data-name="Path 896" d="M162.706,218.327c.02-.012.143.132.243.419a2,2,0,0,1-.6,2.164c-.233.195-.413.256-.424.235s.136-.127.33-.334a2.2,2.2,0,0,0,.56-2.028A2.8,2.8,0,0,1,162.706,218.327Z" transform="translate(-161.926 -218.326)" fill="#455a64"/>
          </g>
        </g>
        <path id="Path_897" data-name="Path 897" d="M113.254,337.831s9.187,8.724,14.648,7.145a10.787,10.787,0,0,0,7.078-5.677l.132-1.468-.547-.358-21.026-1.7Z" transform="translate(-101.791 -292.342)" opacity="0.3"/>
        <g id="Group_3613" data-name="Group 3613" transform="translate(0 21.689)">
          <g id="Group_3594" data-name="Group 3594" transform="translate(5.716 0.866)">
            <path id="Path_898" data-name="Path 898" d="M98.555,311.5l1.772-4.543,6.35,3.99-5.658,8.726A14.973,14.973,0,0,1,98.555,311.5Z" transform="translate(-98.243 -296.738)" fill="#eb996e"/>
            <g id="Group_3593" data-name="Group 3593">
              <g id="Group_3592" data-name="Group 3592">
                <path id="Path_899" data-name="Path 899" d="M105.19,281.53a22.671,22.671,0,0,1,6.781-1.988h0c1.11,2.223,4.611,2.505,6.73.988l1.787-1.208a6.488,6.488,0,0,1,.749.031,9.545,9.545,0,0,1,8.454,7.6,19.059,19.059,0,0,1,.447,4.8c-.233,4.039-4.416,4.4-4.416,4.4s-.215,3.993-.5,7.218h0a6.021,6.021,0,0,1-3.659,5.218,14.859,14.859,0,0,1-4.664,1.438,15.663,15.663,0,0,1-13.9-4.812c.635-3.848,1.241-8.83,1.2-9.053a.111.111,0,0,1,.007-.074l-4.146-3.681-2.35-1.973s5.157-7.654,7.478-8.914" transform="translate(-97.712 -279.32)" fill="#e8505b"/>
              </g>
            </g>
          </g>
          <g id="Group_3595" data-name="Group 3595" transform="translate(11.853 5.143)">
            <path id="Path_900" data-name="Path 900" d="M120.786,291.309a2.2,2.2,0,0,0-1.025-.283,1.686,1.686,0,0,0-1.058.366,4.525,4.525,0,0,0-.471.506,1.225,1.225,0,0,1-.671.445,1.093,1.093,0,0,1-.781-.209c-.213-.136-.395-.285-.582-.393a1.269,1.269,0,0,0-1.085-.095,1.433,1.433,0,0,0-.63.435c-.116.144-.159.242-.175.235a.565.565,0,0,1,.114-.279,1.431,1.431,0,0,1,1.863-.45c.206.113.393.262.595.387a.917.917,0,0,0,.647.18,1.063,1.063,0,0,0,.565-.382,4.237,4.237,0,0,1,.5-.518,1.772,1.772,0,0,1,1.17-.365,1.686,1.686,0,0,1,.792.226C120.722,291.219,120.792,291.3,120.786,291.309Z" transform="translate(-114.307 -290.888)" fill="#fafafa"/>
          </g>
          <g id="Group_3596" data-name="Group 3596" transform="translate(16.085 9.453)">
            <path id="Path_901" data-name="Path 901" d="M132.213,304.175a2.2,2.2,0,0,0-.881-.6,1.685,1.685,0,0,0-1.119.01,4.465,4.465,0,0,0-.608.329,1.225,1.225,0,0,1-.778.207,1.091,1.091,0,0,1-.673-.448c-.159-.2-.283-.4-.426-.558a1.27,1.27,0,0,0-1-.436,1.433,1.433,0,0,0-.736.21c-.156.1-.228.179-.241.167s.045-.1.2-.228a1.43,1.43,0,0,1,1.909.168c.159.173.289.374.44.557a.92.92,0,0,0,.556.377,1.061,1.061,0,0,0,.657-.182,4.251,4.251,0,0,1,.639-.331,1.773,1.773,0,0,1,1.225.029,1.691,1.691,0,0,1,.679.467A.627.627,0,0,1,132.213,304.175Z" transform="translate(-125.752 -302.542)" fill="#fafafa"/>
          </g>
          <g id="Group_3597" data-name="Group 3597" transform="translate(25.781 2.781)">
            <path id="Path_902" data-name="Path 902" d="M158.1,284.721a2.2,2.2,0,0,0-1.062-.06,1.687,1.687,0,0,0-.956.582,4.419,4.419,0,0,0-.353.594,1.223,1.223,0,0,1-.562.577,1.09,1.09,0,0,1-.808-.039c-.237-.088-.447-.2-.652-.261a1.268,1.268,0,0,0-1.08.137,1.434,1.434,0,0,0-.524.558c-.083.165-.1.27-.121.267a.563.563,0,0,1,.053-.3,1.43,1.43,0,0,1,1.725-.835c.225.067.44.173.663.253a.917.917,0,0,0,.67.038,1.064,1.064,0,0,0,.471-.493,4.216,4.216,0,0,1,.379-.612,1.772,1.772,0,0,1,1.067-.6,1.688,1.688,0,0,1,.822.053A.624.624,0,0,1,158.1,284.721Z" transform="translate(-151.974 -284.501)" fill="#fafafa"/>
          </g>
          <g id="Group_3598" data-name="Group 3598" transform="translate(22.644 7.606)">
            <path id="Path_903" data-name="Path 903" d="M148.432,299.011a1.9,1.9,0,0,0-.664-.476,1.29,1.29,0,0,0-.851-.026,3.465,3.465,0,0,0-.476.232.964.964,0,0,1-.621.135.861.861,0,0,1-.516-.377c-.116-.159-.2-.317-.308-.445a.965.965,0,0,0-.738-.368,1.346,1.346,0,0,0-.766.241c-.007-.006.034-.082.156-.176a1.066,1.066,0,0,1,.612-.2,1.086,1.086,0,0,1,.875.392c.118.14.212.3.321.445a.69.69,0,0,0,.4.3c.34.06.652-.246,1.007-.348a1.377,1.377,0,0,1,.956.07C148.333,298.646,148.451,299.016,148.432,299.011Z" transform="translate(-143.491 -297.549)" fill="#fafafa"/>
          </g>
          <g id="Group_3599" data-name="Group 3599" transform="translate(13.12 12.717)">
            <path id="Path_904" data-name="Path 904" d="M122.676,312.832a1.876,1.876,0,0,0-.664-.476,1.292,1.292,0,0,0-.851-.027,3.459,3.459,0,0,0-.476.232.962.962,0,0,1-.621.135.862.862,0,0,1-.517-.377c-.116-.159-.2-.317-.307-.445a.967.967,0,0,0-.738-.368,1.343,1.343,0,0,0-.766.242c-.008-.006.034-.082.155-.176a1.065,1.065,0,0,1,.612-.2,1.086,1.086,0,0,1,.875.392c.119.141.212.3.321.445a.688.688,0,0,0,.4.3c.34.06.652-.246,1.007-.348a1.379,1.379,0,0,1,.956.07C122.578,312.467,122.7,312.836,122.676,312.832Z" transform="translate(-117.736 -311.369)" fill="#fafafa"/>
          </g>
          <g id="Group_3600" data-name="Group 3600" transform="translate(21.937 13.917)">
            <path id="Path_905" data-name="Path 905" d="M146.605,314.993a1.891,1.891,0,0,0-.782-.235,1.288,1.288,0,0,0-.814.25,3.425,3.425,0,0,0-.375.374.965.965,0,0,1-.544.329.86.86,0,0,1-.611-.19c-.162-.113-.3-.234-.435-.322a.966.966,0,0,0-.818-.109,1.348,1.348,0,0,0-.647.476c-.009,0,.006-.088.09-.217a1.065,1.065,0,0,1,.513-.388,1.086,1.086,0,0,1,.954.088c.158.095.3.216.448.317a.689.689,0,0,0,.478.155c.341-.054.537-.444.841-.655a1.377,1.377,0,0,1,.926-.243A1,1,0,0,1,146.605,314.993Z" transform="translate(-141.577 -314.615)" fill="#fafafa"/>
          </g>
          <g id="Group_3601" data-name="Group 3601" transform="translate(18.996 17.978)">
            <path id="Path_906" data-name="Path 906" d="M138.652,325.976a1.882,1.882,0,0,0-.782-.236,1.293,1.293,0,0,0-.814.25,3.425,3.425,0,0,0-.375.374.965.965,0,0,1-.544.329.862.862,0,0,1-.611-.19c-.162-.113-.3-.234-.435-.322a.966.966,0,0,0-.818-.11,1.344,1.344,0,0,0-.647.477c-.009,0,.006-.089.09-.217a1.063,1.063,0,0,1,.513-.389,1.086,1.086,0,0,1,.954.088c.158.094.3.215.448.317a.687.687,0,0,0,.478.155c.341-.054.537-.444.841-.654a1.375,1.375,0,0,1,.926-.243A1,1,0,0,1,138.652,325.976Z" transform="translate(-133.624 -325.598)" fill="#fafafa"/>
          </g>
          <g id="Group_3602" data-name="Group 3602" transform="translate(12.857 27.032)">
            <path id="Path_907" data-name="Path 907" d="M121.979,351.487a1.879,1.879,0,0,0-.671-.467,1.291,1.291,0,0,0-.851-.014,3.507,3.507,0,0,0-.473.239.961.961,0,0,1-.619.144.86.86,0,0,1-.522-.37c-.118-.157-.209-.314-.314-.441a.966.966,0,0,0-.744-.358,1.348,1.348,0,0,0-.762.252c-.008-.006.033-.082.153-.178a1.064,1.064,0,0,1,.609-.21,1.086,1.086,0,0,1,.88.379c.121.139.216.3.328.44a.686.686,0,0,0,.406.3c.341.055.649-.256,1-.362a1.377,1.377,0,0,1,.956.056C121.876,351.123,122,351.491,121.979,351.487Z" transform="translate(-117.024 -350.083)" fill="#fafafa"/>
          </g>
          <g id="Group_3603" data-name="Group 3603" transform="translate(20.045 30.19)">
            <path id="Path_908" data-name="Path 908" d="M141.5,359.013a1.885,1.885,0,0,0-.779-.246,1.292,1.292,0,0,0-.817.239,3.5,3.5,0,0,0-.381.369.964.964,0,0,1-.548.321.862.862,0,0,1-.608-.2c-.16-.115-.293-.238-.43-.328a.968.968,0,0,0-.816-.121,1.344,1.344,0,0,0-.653.468c-.009,0,.007-.089.093-.216a1.065,1.065,0,0,1,.519-.381,1.085,1.085,0,0,1,.953.1c.156.1.3.22.444.323a.688.688,0,0,0,.476.162c.342-.049.544-.436.849-.643a1.376,1.376,0,0,1,.93-.23A1,1,0,0,1,141.5,359.013Z" transform="translate(-136.462 -358.623)" fill="#fafafa"/>
          </g>
          <g id="Group_3608" data-name="Group 3608">
            <g id="Group_3606" data-name="Group 3606">
              <g id="Group_3605" data-name="Group 3605">
                <path id="Path_909" data-name="Path 909" d="M83.387,276.979c.224.264,8.354,11.136,8.354,11.136l-1.144.649L82.254,278.03Z" transform="translate(-82.254 -276.979)" fill="#263238"/>
                <path id="Path_910" data-name="Path 910" d="M119.534,293.473s-7.626,13.15-8.141,13.392c-1.015.476-12.716-9.635-13.832-10.6-.154-.206-.471-.639-1.095-1.5,0,0-.923-4.224-1.908-3.9s.54,2.147-.1,3.752-3.58-2.223-3.7-2.567l-.758-.99a13,13,0,0,0-.741,3.193c.173,3.014,3.024,6.6,3.024,6.6s11.587,14.519,20.358,15.011c2.526.142,7.352-7.132,10.353-12.507,1.813-3.246.971-6.544-2.033-8.734Z" transform="translate(-86.668 -285.717)" fill="#ffbe9d"/>
                <g id="Group_3604" data-name="Group 3604" transform="translate(2.927 6.841)">
                  <path id="Path_911" data-name="Path 911" d="M91.274,297.707a6.942,6.942,0,0,1-1.1-2.228,12.415,12.415,0,0,1,.554,1.112C91.029,297.206,91.3,297.69,91.274,297.707Z" transform="translate(-90.169 -295.479)" fill="#eb996e"/>
                </g>
              </g>
            </g>
            <path id="Path_912" data-name="Path 912" d="M157.565,288.061c-.3.181-7.392,13.345-7.392,13.345l9.128,7.15a105.718,105.718,0,0,0,3.627-10.6,15.238,15.238,0,0,0-.315-6.07c-.682-1.891-1.71-1.42-3.25-2.527Z" transform="translate(-125.058 -283.963)" fill="#e8505b"/>
            <g id="Group_3607" data-name="Group 3607" transform="translate(24.994 3.717)" opacity="0.7">
              <path id="Path_913" data-name="Path 913" d="M160.357,287.413c-.006.008-.089-.05-.26-.136a1.532,1.532,0,0,0-.8-.169,2.189,2.189,0,0,0-1.191.5,5.912,5.912,0,0,0-1.188,1.28c-.386.525-.7,1.167-1.093,1.835l-1.22,2.141-2.805,4.9-1.75,3.042-.024-.12,6.176,4.88L157.992,307l.475.392a1.01,1.01,0,0,1,.158.145,1.047,1.047,0,0,1-.178-.118l-.494-.368-1.826-1.4-6.217-4.827-.064-.05.04-.071,1.744-3.044,2.818-4.891,1.234-2.132a21.114,21.114,0,0,1,1.123-1.839,5.917,5.917,0,0,1,1.234-1.286,2.239,2.239,0,0,1,1.252-.486,1.51,1.51,0,0,1,.824.209,1.332,1.332,0,0,1,.185.122C160.34,287.394,160.359,287.41,160.357,287.413Z" transform="translate(-149.845 -287.032)"/>
            </g>
          </g>
          <g id="Group_3609" data-name="Group 3609" transform="translate(27.839 14.979)">
            <path id="Path_914" data-name="Path 914" d="M162.482,318.949a1.89,1.89,0,0,0-.664-.476,1.292,1.292,0,0,0-.851-.027,3.543,3.543,0,0,0-.476.232.964.964,0,0,1-.621.135.862.862,0,0,1-.516-.378c-.116-.159-.2-.317-.308-.445a.968.968,0,0,0-.738-.368,1.346,1.346,0,0,0-.766.242c-.007-.006.034-.082.156-.176a1.066,1.066,0,0,1,.612-.2,1.086,1.086,0,0,1,.874.392c.119.141.212.3.322.445a.688.688,0,0,0,.4.3c.34.06.652-.246,1.007-.347a1.377,1.377,0,0,1,.956.07C162.383,318.584,162.5,318.953,162.482,318.949Z" transform="translate(-157.541 -317.486)" fill="#fafafa"/>
          </g>
          <g id="Group_3610" data-name="Group 3610" transform="translate(32.487 12.17)">
            <path id="Path_915" data-name="Path 915" d="M174.575,312.459a1.887,1.887,0,0,0-.511-.637,1.29,1.29,0,0,0-.812-.255,3.49,3.49,0,0,0-.521.1.964.964,0,0,1-.634-.038.861.861,0,0,1-.4-.5c-.069-.185-.112-.361-.176-.511a.968.968,0,0,0-.612-.554,1.345,1.345,0,0,0-.8.026c-.006-.008.055-.07.2-.128a1.065,1.065,0,0,1,.643-.029,1.086,1.086,0,0,1,.737.613c.076.167.123.346.189.515a.689.689,0,0,0,.306.4c.311.149.694-.061,1.063-.063a1.378,1.378,0,0,1,.9.325A1,1,0,0,1,174.575,312.459Z" transform="translate(-170.11 -309.89)" fill="#fafafa"/>
          </g>
          <g id="Group_3611" data-name="Group 3611" transform="translate(32.702 6.728)">
            <path id="Path_916" data-name="Path 916" d="M175.155,297.743a1.88,1.88,0,0,0-.511-.638,1.291,1.291,0,0,0-.812-.255,3.419,3.419,0,0,0-.521.1.963.963,0,0,1-.635-.037.861.861,0,0,1-.4-.5c-.069-.184-.112-.361-.176-.512a.966.966,0,0,0-.612-.554,1.342,1.342,0,0,0-.8.026c-.006-.008.055-.07.2-.128a1.066,1.066,0,0,1,.643-.029,1.085,1.085,0,0,1,.736.613c.076.167.124.346.19.515a.687.687,0,0,0,.306.4c.311.149.694-.061,1.063-.063a1.378,1.378,0,0,1,.9.325A1,1,0,0,1,175.155,297.743Z" transform="translate(-170.69 -295.174)" fill="#fafafa"/>
          </g>
          <g id="Group_3612" data-name="Group 3612" transform="translate(30.682 19.238)">
            <path id="Path_917" data-name="Path 917" d="M169.694,331.573a1.886,1.886,0,0,0-.511-.638,1.292,1.292,0,0,0-.812-.255,3.486,3.486,0,0,0-.521.1.962.962,0,0,1-.634-.037.862.862,0,0,1-.4-.5c-.069-.185-.112-.361-.176-.512a.966.966,0,0,0-.612-.554,1.345,1.345,0,0,0-.8.026c-.006-.008.055-.069.2-.128a1.062,1.062,0,0,1,.643-.029,1.086,1.086,0,0,1,.737.613c.076.167.123.346.189.515a.689.689,0,0,0,.306.4c.311.149.694-.061,1.063-.063a1.38,1.38,0,0,1,.9.325A1,1,0,0,1,169.694,331.573Z" transform="translate(-165.229 -329.004)" fill="#fafafa"/>
          </g>
        </g>
      </g>
    </g>
  </g>
</svg>
