<svg xmlns="http://www.w3.org/2000/svg" width="167" height="172.921" viewBox="0 0 167 172.921">
  <g id="Group_18109" data-name="Group 18109" transform="translate(-124 -119.079)">
    <circle id="Ellipse_96" data-name="Ellipse 96" cx="83.5" cy="83.5" r="83.5" transform="translate(124 125)" fill="#e9e9e9"/>
    <g id="blood-donation" transform="translate(139.188 119.079)">
      <path id="Path_763" data-name="Path 763" d="M173.553,299.432c-1.71.565-2.8-.153-3.844-.686v58.042a8.85,8.85,0,0,1-8.839,8.841h-4.525a8.85,8.85,0,0,1-8.841-8.841V318.342a14,14,0,0,0-13.982-13.982H129a14,14,0,0,0-13.982,13.982v38.445a8.85,8.85,0,0,1-8.841,8.841H101.65a8.851,8.851,0,0,1-8.841-8.841V305.8H87.668v50.985a14,14,0,0,0,13.982,13.982h4.525a14,14,0,0,0,13.982-13.982V318.342A8.849,8.849,0,0,1,129,309.5h4.525a8.849,8.849,0,0,1,8.839,8.839v38.445a14,14,0,0,0,13.983,13.982h4.524a14,14,0,0,0,13.983-13.982v-58c-.5.253-.935.47-1.3.644Zm0,0" transform="translate(-57.728 -197.848)" fill="#e03455"/>
      <path id="Path_764" data-name="Path 764" d="M75.887,280.836v11.041a2.752,2.752,0,0,0,2.751,2.751h7.6a2.751,2.751,0,0,0,2.751-2.751V280.836Zm0,0" transform="translate(-49.926 -185.987)" fill="#fc7091"/>
      <path id="Path_765" data-name="Path 765" d="M82.8,291.877V280.836H75.887v11.041a2.752,2.752,0,0,0,2.751,2.751h6.918a2.752,2.752,0,0,1-2.752-2.751Zm0,0" transform="translate(-49.926 -185.987)" fill="#f65f7a"/>
      <path id="Path_766" data-name="Path 766" d="M62.566,14.91H44.9A1.509,1.509,0,0,1,43.394,13.4V6.036A6.054,6.054,0,0,0,37.359,0H28.4a6.053,6.053,0,0,0-6.036,6.036v7.611A1.264,1.264,0,0,1,21.1,14.911H3.192A2.692,2.692,0,0,0,.5,17.6v75.24a2.691,2.691,0,0,0,2.691,2.691H62.565a2.691,2.691,0,0,0,2.691-2.691V17.6a2.69,2.69,0,0,0-2.69-2.691Zm0,0" transform="translate(0)" fill="#e5f0f9"/>
      <path id="Path_767" data-name="Path 767" d="M7.356,122.081V46.84a2.692,2.692,0,0,1,2.691-2.691H3.191A2.692,2.692,0,0,0,.5,46.84v75.241a2.692,2.692,0,0,0,2.691,2.691h6.856A2.692,2.692,0,0,1,7.356,122.081Zm0,0" transform="translate(0 -29.238)" fill="#c8e7fc"/>
      <path id="Path_768" data-name="Path 768" d="M69.611,13.647V6.036A6.054,6.054,0,0,1,75.647,0H68.792a6.053,6.053,0,0,0-6.036,6.036v7.611a1.264,1.264,0,0,1-1.264,1.264h6.855A1.263,1.263,0,0,0,69.611,13.647Zm0,0" transform="translate(-40.393 0)" fill="#c8e7fc"/>
      <path id="Path_769" data-name="Path 769" d="M.5,173.1v34.381a2.692,2.692,0,0,0,2.691,2.691H62.566a2.692,2.692,0,0,0,2.691-2.691V173.1H.5Zm0,0" transform="translate(0 -114.639)" fill="#ef4d64"/>
      <path id="Path_770" data-name="Path 770" d="M3.191,210.173h6.856a2.692,2.692,0,0,1-2.691-2.691V173.1H.5v34.381A2.7,2.7,0,0,0,3.191,210.173Zm0,0" transform="translate(0 -114.639)" fill="#e03455"/>
      <path id="Path_771" data-name="Path 771" d="M91.329,30.567A2.57,2.57,0,1,1,93.9,28,2.574,2.574,0,0,1,91.329,30.567Zm0,0" transform="translate(-58.45 -16.839)" fill="#594972"/>
      <path id="Path_772" data-name="Path 772" d="M283.742,112.348a18.611,18.611,0,0,0-16.2,9.471h0a2.921,2.921,0,0,1-4.839.007h0a18.626,18.626,0,0,0-34.828,9.21c.029,26.882,29.627,42.544,36.076,45.639a3.994,3.994,0,0,0,2.458,0c6.433-3.1,36.014-18.827,35.988-45.714a18.629,18.629,0,0,0-18.651-18.611Zm0,0" transform="translate(-150.58 -74.404)" fill="#fc7091"/>
      <path id="Path_773" data-name="Path 773" d="M234.726,131.107a18.634,18.634,0,0,1,15.21-18.33,18.631,18.631,0,0,0-22.065,18.33c.029,26.882,29.626,42.544,36.076,45.638a3.984,3.984,0,0,0,2.458,0c.565-.272,1.31-.642,2.194-1.108-9.223-4.827-33.846-20.011-33.873-44.53Zm0,0" transform="translate(-150.58 -74.476)" fill="#f65f7a"/>
      <path id="Path_774" data-name="Path 774" d="M304.456,208.156c-8.379,4.024-20.917,6.621-32.873-.788-13.114-8.128-27.615-4.008-33.97-1.483,7.9,17.673,27.657,28.081,32.787,30.541a3.989,3.989,0,0,0,2.456,0C277.743,234.07,295.977,224.432,304.456,208.156Zm0,0" transform="translate(-157.031 -134.157)" fill="#ef4d64"/>
      <path id="Path_775" data-name="Path 775" d="M272.854,239.093c.565-.272,1.31-.643,2.194-1.108-7.442-3.9-24.911-14.536-31.392-31.383a48.953,48.953,0,0,0-6.046,1.951c5.93,13.239,19.655,24.258,32.788,30.541A4.043,4.043,0,0,0,272.854,239.093Zm0,0" transform="translate(-157.029 -136.825)" fill="#e03455"/>
      <path id="Path_776" data-name="Path 776" d="M87.668,239.535h5.141V254.17H87.668Zm0,0" transform="translate(-57.728 -158.635)" fill="#e03455"/>
      <path id="Path_777" data-name="Path 777" d="M75.653,90.516H40.136a1.862,1.862,0,0,0-1.863,1.862v49.279a1.863,1.863,0,0,0,1.863,1.863H75.654a1.862,1.862,0,0,0,1.862-1.863V92.377a1.862,1.862,0,0,0-1.863-1.862Zm0,0" transform="translate(-25.016 -59.945)" fill="#abd7ef"/>
      <path id="Path_778" data-name="Path 778" d="M45.128,141.657V92.378a1.862,1.862,0,0,1,1.863-1.862H40.135a1.862,1.862,0,0,0-1.862,1.862v49.279a1.862,1.862,0,0,0,1.862,1.862h6.856A1.862,1.862,0,0,1,45.128,141.657Zm0,0" transform="translate(-25.016 -59.946)" fill="#8ccae5"/>
      <path id="Path_779" data-name="Path 779" d="M87.441,143.681,80.755,129.7a1,1,0,0,0-1.8,0l-6.687,13.976a8.413,8.413,0,1,0,15.178,0Zm0,0" transform="translate(-46.973 -85.522)" fill="#ef4d64"/>
      <path id="Path_780" data-name="Path 780" d="M79.117,143.681l4.161-8.7L80.752,129.7a1,1,0,0,0-1.8,0l-6.686,13.976A8.42,8.42,0,0,0,83.278,155a8.422,8.422,0,0,1-4.161-11.321Zm0,0" transform="translate(-46.972 -85.522)" fill="#e03455"/>
    </g>
  </g>
</svg>
